<svg width="561" height="88" viewBox="0 0 561 88" fill="none" xmlns="http://www.w3.org/2000/svg">
<path d="M8.88 62.528C10.992 62.528 12.688 63.264 13.968 64.736C15.2693 66.208 15.92 68.4267 15.92 71.392C15.92 73.3333 15.6213 74.976 15.024 76.32C14.448 77.6427 13.6267 78.6453 12.56 79.328C11.5147 79.9893 10.2773 80.32 8.848 80.32C7.97333 80.32 7.19467 80.2027 6.512 79.968C5.82933 79.7333 5.24267 79.4347 4.752 79.072C4.28267 78.688 3.87733 78.272 3.536 77.824H3.344C3.38667 78.1867 3.42933 78.6453 3.472 79.2C3.51467 79.7547 3.536 80.2347 3.536 80.64V87.68H0.72V62.848H3.024L3.408 65.184H3.536C3.87733 64.6933 4.28267 64.2453 4.752 63.84C5.24267 63.4347 5.81867 63.1147 6.48 62.88C7.16267 62.6453 7.96267 62.528 8.88 62.528ZM8.368 64.896C7.216 64.896 6.288 65.12 5.584 65.568C4.88 65.9947 4.368 66.6453 4.048 67.52C3.728 68.3947 3.55733 69.504 3.536 70.848V71.392C3.536 72.8 3.68533 73.9947 3.984 74.976C4.28267 75.9573 4.784 76.704 5.488 77.216C6.21333 77.728 7.19467 77.984 8.432 77.984C9.47733 77.984 10.3307 77.696 10.992 77.12C11.6747 76.544 12.176 75.7653 12.496 74.784C12.8373 73.7813 13.008 72.64 13.008 71.36C13.008 69.3973 12.624 67.8293 11.856 66.656C11.1093 65.4827 9.94667 64.896 8.368 64.896ZM28.4075 62.528C28.7275 62.528 29.0688 62.5493 29.4315 62.592C29.8155 62.6133 30.1462 62.656 30.4235 62.72L30.0715 65.312C29.7942 65.248 29.4848 65.1947 29.1435 65.152C28.8235 65.1093 28.5142 65.088 28.2155 65.088C27.5542 65.088 26.9248 65.2267 26.3275 65.504C25.7302 65.7813 25.1968 66.176 24.7275 66.688C24.2582 67.1787 23.8848 67.776 23.6075 68.48C23.3515 69.184 23.2235 69.9733 23.2235 70.848V80H20.4075V62.848H22.7115L23.0315 65.984H23.1595C23.5222 65.344 23.9595 64.768 24.4715 64.256C24.9835 63.7227 25.5702 63.3067 26.2315 63.008C26.8928 62.688 27.6182 62.528 28.4075 62.528ZM36.4423 62.848V80H33.6263V62.848H36.4423ZM35.0663 56.416C35.4929 56.416 35.8663 56.5653 36.1863 56.864C36.5276 57.1413 36.6983 57.5893 36.6983 58.208C36.6983 58.8053 36.5276 59.2533 36.1863 59.552C35.8663 59.8507 35.4929 60 35.0663 60C34.5969 60 34.2023 59.8507 33.8823 59.552C33.5623 59.2533 33.4023 58.8053 33.4023 58.208C33.4023 57.5893 33.5623 57.1413 33.8823 56.864C34.2023 56.5653 34.5969 56.416 35.0663 56.416ZM50.1323 62.528C52.1803 62.528 53.7269 63.0293 54.7723 64.032C55.8176 65.0133 56.3403 66.6133 56.3403 68.832V80H53.5563V69.024C53.5563 67.6373 53.2469 66.6027 52.6283 65.92C52.0096 65.2373 51.0389 64.896 49.7163 64.896C47.8176 64.896 46.5056 65.4293 45.7803 66.496C45.0549 67.5627 44.6923 69.0987 44.6923 71.104V80H41.8763V62.848H44.1483L44.5643 65.184H44.7243C45.1083 64.5867 45.5776 64.096 46.1323 63.712C46.7083 63.3067 47.3376 63.008 48.0203 62.816C48.7029 62.624 49.4069 62.528 50.1323 62.528ZM67.3855 78.016C67.8122 78.016 68.2495 77.984 68.6975 77.92C69.1455 77.8347 69.5082 77.7493 69.7855 77.664V79.808C69.4868 79.9573 69.0602 80.0747 68.5055 80.16C67.9508 80.2667 67.4175 80.32 66.9055 80.32C66.0095 80.32 65.1775 80.1707 64.4095 79.872C63.6628 79.552 63.0548 79.008 62.5855 78.24C62.1162 77.472 61.8815 76.3947 61.8815 75.008V65.024H59.4495V63.68L61.9135 62.56L63.0335 58.912H64.6975V62.848H69.6575V65.024H64.6975V74.944C64.6975 75.9893 64.9428 76.768 65.4335 77.28C65.9455 77.7707 66.5962 78.016 67.3855 78.016Z" fill="#DADAAA"/>
<path d="M71.78 71.232C71.78 69.4827 71.94 67.776 72.26 66.112C72.6013 64.448 73.124 62.8587 73.828 61.344C74.532 59.8293 75.4173 58.432 76.484 57.152H79.14C78.1587 58.4747 77.3267 59.904 76.644 61.44C75.9827 62.976 75.4813 64.5653 75.14 66.208C74.7987 67.8507 74.628 69.5147 74.628 71.2C74.628 72.8427 74.7987 74.4747 75.14 76.096C75.4813 77.7173 75.9827 79.2747 76.644 80.768C77.3053 82.2827 78.1267 83.712 79.108 85.056H76.484C75.4173 83.7973 74.532 82.4213 73.828 80.928C73.124 79.456 72.6013 77.8987 72.26 76.256C71.94 74.6133 71.78 72.9387 71.78 71.232ZM552.976 71.232C552.976 72.9387 552.806 74.6133 552.464 76.256C552.144 77.8987 551.632 79.456 550.928 80.928C550.246 82.4213 549.36 83.7973 548.272 85.056H545.648C546.63 83.712 547.451 82.2827 548.112 80.768C548.774 79.2747 549.275 77.7173 549.616 76.096C549.958 74.4747 550.128 72.8427 550.128 71.2C550.128 69.5147 549.958 67.8507 549.616 66.208C549.275 64.5653 548.774 62.976 548.112 61.44C547.451 59.904 546.619 58.4747 545.616 57.152H548.272C549.36 58.432 550.246 59.8293 550.928 61.344C551.632 62.8587 552.144 64.448 552.464 66.112C552.806 67.776 552.976 69.4827 552.976 71.232Z" fill="#5C9EFC"/>
<path d="M91.1978 57.152C91.0058 57.9627 90.8031 58.8373 90.5898 59.776C90.3764 60.7147 90.1844 61.632 90.0138 62.528C89.8431 63.424 89.7044 64.2453 89.5978 64.992H86.5578L86.3338 64.64C86.5258 63.8933 86.7711 63.0933 87.0698 62.24C87.3684 61.3653 87.6991 60.4907 88.0618 59.616C88.4244 58.7413 88.7764 57.92 89.1178 57.152H91.1978ZM85.2778 57.152C85.0858 57.9627 84.8831 58.8373 84.6698 59.776C84.4564 60.7147 84.2644 61.632 84.0938 62.528C83.9231 63.424 83.7844 64.2453 83.6778 64.992H80.6698L80.4778 64.64C80.6698 63.8933 80.9151 63.0933 81.2138 62.24C81.5124 61.3653 81.8324 60.4907 82.1738 59.616C82.5364 58.7413 82.8884 57.92 83.2298 57.152H85.2778ZM544.26 57.504C544.068 58.2507 543.823 59.0613 543.524 59.936C543.226 60.8107 542.895 61.6853 542.532 62.56C542.191 63.4133 541.85 64.224 541.508 64.992H539.396C539.61 64.1813 539.812 63.3173 540.004 62.4C540.218 61.4613 540.41 60.544 540.58 59.648C540.772 58.7307 540.922 57.8987 541.028 57.152H544.036L544.26 57.504ZM538.34 57.504C538.148 58.2507 537.903 59.0613 537.604 59.936C537.306 60.8107 536.975 61.6853 536.612 62.56C536.271 63.4133 535.93 64.224 535.588 64.992H533.54C533.69 64.3947 533.839 63.7547 533.988 63.072C534.138 62.3893 534.276 61.7067 534.404 61.024C534.554 60.32 534.682 59.6373 534.788 58.976C534.916 58.3147 535.023 57.7067 535.108 57.152H538.116L538.34 57.504Z" fill="white"/>
<path d="M155.722 0.607998H163.69V64.544H155.722V0.607998ZM161.194 27.008H176.554V33.632H161.194V27.008ZM109.642 79.04H167.626V85.568H109.642V79.04ZM109.642 58.016H117.61V81.632H109.642V58.016ZM120.586 6.752C133.546 6.752 143.242 15.68 143.242 28.16C143.242 40.736 133.546 49.568 120.586 49.568C107.626 49.568 97.9297 40.736 97.9297 28.16C97.9297 15.68 107.626 6.752 120.586 6.752ZM120.586 13.76C112.138 13.76 105.706 19.712 105.706 28.16C105.706 36.704 112.138 42.56 120.586 42.56C129.034 42.56 135.466 36.704 135.466 28.16C135.466 19.712 129.034 13.76 120.586 13.76ZM189.89 5.888H197.762V43.328H189.89V5.888ZM189.89 41.408H196.418C211.682 41.408 222.242 40.928 234.242 38.432L235.298 44.864C222.818 47.456 212.066 48.032 196.418 48.032H189.89V41.408ZM248.066 0.703997H256.034V53.888H248.066V0.703997ZM223.778 10.88H250.274V17.12H223.778V10.88ZM223.778 26.144H250.274V32.48H223.778V26.144ZM227.522 54.656C245.378 54.656 256.418 60.704 256.418 71.072C256.418 81.44 245.378 87.392 227.522 87.392C209.57 87.392 198.53 81.44 198.53 71.072C198.53 60.704 209.57 54.656 227.522 54.656ZM227.522 60.992C214.466 60.992 206.498 64.736 206.498 71.072C206.498 77.408 214.466 81.056 227.522 81.056C240.578 81.056 248.546 77.408 248.546 71.072C248.546 64.736 240.578 60.992 227.522 60.992ZM331.771 0.703997H339.739V87.488H331.771V0.703997ZM337.819 36.32H353.947V43.04H337.819V36.32ZM272.539 14.528H323.707V21.056H272.539V14.528ZM298.459 28.256C310.747 28.256 319.579 36.512 319.579 48.224C319.579 59.936 310.747 68.192 298.459 68.192C286.267 68.192 277.339 59.936 277.339 48.224C277.339 36.512 286.267 28.256 298.459 28.256ZM298.459 34.88C290.587 34.88 284.923 40.352 284.923 48.224C284.923 56 290.587 61.568 298.459 61.568C306.331 61.568 311.995 56 311.995 48.224C311.995 40.352 306.331 34.88 298.459 34.88ZM294.331 1.75999H302.299V17.504H294.331V1.75999ZM395.507 31.712H412.115V38.336H395.507V31.712ZM379.283 8.86399H385.523V25.376C385.523 43.52 377.939 61.088 365.267 68.864L360.275 62.816C372.179 55.808 379.283 40.256 379.283 25.376V8.86399ZM380.819 8.86399H386.963V25.088C386.963 39.008 393.491 53.792 404.915 60.704L400.307 66.944C387.827 59.264 380.819 41.984 380.819 25.088V8.86399ZM427.379 0.703997H435.059V87.488H427.379V0.703997ZM409.811 2.528H417.299V83.168H409.811V2.528ZM468.844 45.344H476.716V71.36H468.844V45.344ZM500.908 45.344H508.876V71.36H500.908V45.344ZM449.644 69.824H528.268V76.448H449.644V69.824ZM488.812 6.17599C507.148 6.17599 520.3 14.912 520.3 28.544C520.3 42.08 507.148 50.816 488.812 50.816C470.38 50.816 457.228 42.08 457.228 28.544C457.228 14.912 470.38 6.17599 488.812 6.17599ZM488.812 12.512C474.892 12.512 464.908 18.848 464.908 28.544C464.908 38.144 474.892 44.48 488.812 44.48C502.732 44.48 512.62 38.144 512.62 28.544C512.62 18.848 502.732 12.512 488.812 12.512Z" fill="#B98C76"/>
<path d="M560.106 76.64C559.914 77.3867 559.669 78.1973 559.37 79.072C559.071 79.9467 558.741 80.8107 558.378 81.664C558.037 82.5387 557.695 83.36 557.354 84.128H555.242C555.391 83.5307 555.541 82.8907 555.69 82.208C555.861 81.5253 556.021 80.832 556.17 80.128C556.319 79.4453 556.447 78.7733 556.554 78.112C556.682 77.4507 556.789 76.8427 556.874 76.288H559.882L560.106 76.64ZM556.49 64.576C556.49 63.7653 556.682 63.2 557.066 62.88C557.45 62.56 557.909 62.4 558.442 62.4C558.997 62.4 559.466 62.56 559.85 62.88C560.255 63.2 560.458 63.7653 560.458 64.576C560.458 65.344 560.255 65.8987 559.85 66.24C559.466 66.5813 558.997 66.752 558.442 66.752C557.909 66.752 557.45 66.5813 557.066 66.24C556.682 65.8987 556.49 65.344 556.49 64.576Z" fill="#D3D3D3"/>
</svg>
