<svg width="311" height="89" viewBox="0 0 311 89" fill="none" xmlns="http://www.w3.org/2000/svg">
<path d="M8.88 63.528C10.992 63.528 12.688 64.264 13.968 65.736C15.2693 67.208 15.92 69.4267 15.92 72.392C15.92 74.3333 15.6213 75.976 15.024 77.32C14.448 78.6427 13.6267 79.6453 12.56 80.328C11.5147 80.9893 10.2773 81.32 8.848 81.32C7.97333 81.32 7.19467 81.2027 6.512 80.968C5.82933 80.7333 5.24267 80.4347 4.752 80.072C4.28267 79.688 3.87733 79.272 3.536 78.824H3.344C3.38667 79.1867 3.42933 79.6453 3.472 80.2C3.51467 80.7547 3.536 81.2347 3.536 81.64V88.68H0.72V63.848H3.024L3.408 66.184H3.536C3.87733 65.6933 4.28267 65.2453 4.752 64.84C5.24267 64.4347 5.81867 64.1147 6.48 63.88C7.16267 63.6453 7.96267 63.528 8.88 63.528ZM8.368 65.896C7.216 65.896 6.288 66.12 5.584 66.568C4.88 66.9947 4.368 67.6453 4.048 68.52C3.728 69.3947 3.55733 70.504 3.536 71.848V72.392C3.536 73.8 3.68533 74.9947 3.984 75.976C4.28267 76.9573 4.784 77.704 5.488 78.216C6.21333 78.728 7.19467 78.984 8.432 78.984C9.47733 78.984 10.3307 78.696 10.992 78.12C11.6747 77.544 12.176 76.7653 12.496 75.784C12.8373 74.7813 13.008 73.64 13.008 72.36C13.008 70.3973 12.624 68.8293 11.856 67.656C11.1093 66.4827 9.94667 65.896 8.368 65.896ZM28.4075 63.528C28.7275 63.528 29.0688 63.5493 29.4315 63.592C29.8155 63.6133 30.1462 63.656 30.4235 63.72L30.0715 66.312C29.7942 66.248 29.4848 66.1947 29.1435 66.152C28.8235 66.1093 28.5142 66.088 28.2155 66.088C27.5542 66.088 26.9248 66.2267 26.3275 66.504C25.7302 66.7813 25.1968 67.176 24.7275 67.688C24.2582 68.1787 23.8848 68.776 23.6075 69.48C23.3515 70.184 23.2235 70.9733 23.2235 71.848V81H20.4075V63.848H22.7115L23.0315 66.984H23.1595C23.5222 66.344 23.9595 65.768 24.4715 65.256C24.9835 64.7227 25.5702 64.3067 26.2315 64.008C26.8928 63.688 27.6182 63.528 28.4075 63.528ZM36.4423 63.848V81H33.6263V63.848H36.4423ZM35.0663 57.416C35.4929 57.416 35.8663 57.5653 36.1863 57.864C36.5276 58.1413 36.6983 58.5893 36.6983 59.208C36.6983 59.8053 36.5276 60.2533 36.1863 60.552C35.8663 60.8507 35.4929 61 35.0663 61C34.5969 61 34.2023 60.8507 33.8823 60.552C33.5623 60.2533 33.4023 59.8053 33.4023 59.208C33.4023 58.5893 33.5623 58.1413 33.8823 57.864C34.2023 57.5653 34.5969 57.416 35.0663 57.416ZM50.1323 63.528C52.1803 63.528 53.7269 64.0293 54.7723 65.032C55.8176 66.0133 56.3403 67.6133 56.3403 69.832V81H53.5563V70.024C53.5563 68.6373 53.2469 67.6027 52.6283 66.92C52.0096 66.2373 51.0389 65.896 49.7163 65.896C47.8176 65.896 46.5056 66.4293 45.7803 67.496C45.0549 68.5627 44.6923 70.0987 44.6923 72.104V81H41.8763V63.848H44.1483L44.5643 66.184H44.7243C45.1083 65.5867 45.5776 65.096 46.1323 64.712C46.7083 64.3067 47.3376 64.008 48.0203 63.816C48.7029 63.624 49.4069 63.528 50.1323 63.528ZM67.3855 79.016C67.8122 79.016 68.2495 78.984 68.6975 78.92C69.1455 78.8347 69.5082 78.7493 69.7855 78.664V80.808C69.4868 80.9573 69.0602 81.0747 68.5055 81.16C67.9508 81.2667 67.4175 81.32 66.9055 81.32C66.0095 81.32 65.1775 81.1707 64.4095 80.872C63.6628 80.552 63.0548 80.008 62.5855 79.24C62.1162 78.472 61.8815 77.3947 61.8815 76.008V66.024H59.4495V64.68L61.9135 63.56L63.0335 59.912H64.6975V63.848H69.6575V66.024H64.6975V75.944C64.6975 76.9893 64.9428 77.768 65.4335 78.28C65.9455 78.7707 66.5962 79.016 67.3855 79.016Z" fill="#DADAAA"/>
<path d="M71.78 72.232C71.78 70.4827 71.94 68.776 72.26 67.112C72.6013 65.448 73.124 63.8587 73.828 62.344C74.532 60.8293 75.4173 59.432 76.484 58.152H79.14C78.1587 59.4747 77.3267 60.904 76.644 62.44C75.9827 63.976 75.4813 65.5653 75.14 67.208C74.7987 68.8507 74.628 70.5147 74.628 72.2C74.628 73.8427 74.7987 75.4747 75.14 77.096C75.4813 78.7173 75.9827 80.2747 76.644 81.768C77.3053 83.2827 78.1267 84.712 79.108 86.056H76.484C75.4173 84.7973 74.532 83.4213 73.828 81.928C73.124 80.456 72.6013 78.8987 72.26 77.256C71.94 75.6133 71.78 73.9387 71.78 72.232ZM303.414 72.232C303.414 73.9387 303.243 75.6133 302.902 77.256C302.582 78.8987 302.07 80.456 301.366 81.928C300.683 83.4213 299.798 84.7973 298.71 86.056H296.086C297.067 84.712 297.888 83.2827 298.55 81.768C299.211 80.2747 299.712 78.7173 300.054 77.096C300.395 75.4747 300.566 73.8427 300.566 72.2C300.566 70.5147 300.395 68.8507 300.054 67.208C299.712 65.5653 299.211 63.976 298.55 62.44C297.888 60.904 297.056 59.4747 296.054 58.152H298.71C299.798 59.432 300.683 60.8293 301.366 62.344C302.07 63.8587 302.582 65.448 302.902 67.112C303.243 68.776 303.414 70.4827 303.414 72.232Z" fill="#5C9EFC"/>
<path d="M91.1978 58.152C91.0058 58.9627 90.8031 59.8373 90.5898 60.776C90.3764 61.7147 90.1844 62.632 90.0138 63.528C89.8431 64.424 89.7044 65.2453 89.5978 65.992H86.5578L86.3338 65.64C86.5258 64.8933 86.7711 64.0933 87.0698 63.24C87.3684 62.3653 87.6991 61.4907 88.0618 60.616C88.4244 59.7413 88.7764 58.92 89.1178 58.152H91.1978ZM85.2778 58.152C85.0858 58.9627 84.8831 59.8373 84.6698 60.776C84.4564 61.7147 84.2644 62.632 84.0938 63.528C83.9231 64.424 83.7844 65.2453 83.6778 65.992H80.6698L80.4778 65.64C80.6698 64.8933 80.9151 64.0933 81.2138 63.24C81.5124 62.3653 81.8324 61.4907 82.1738 60.616C82.5364 59.7413 82.8884 58.92 83.2298 58.152H85.2778ZM294.698 58.504C294.506 59.2507 294.26 60.0613 293.962 60.936C293.663 61.8107 293.332 62.6853 292.97 63.56C292.628 64.4133 292.287 65.224 291.946 65.992H289.834C290.047 65.1813 290.25 64.3173 290.442 63.4C290.655 62.4613 290.847 61.544 291.018 60.648C291.21 59.7307 291.359 58.8987 291.466 58.152H294.474L294.698 58.504ZM288.778 58.504C288.586 59.2507 288.34 60.0613 288.042 60.936C287.743 61.8107 287.412 62.6853 287.05 63.56C286.708 64.4133 286.367 65.224 286.026 65.992H283.978C284.127 65.3947 284.276 64.7547 284.426 64.072C284.575 63.3893 284.714 62.7067 284.842 62.024C284.991 61.32 285.119 60.6373 285.226 59.976C285.354 59.3147 285.46 58.7067 285.546 58.152H288.554L288.778 58.504Z" fill="white"/>
<path d="M136.234 0.839996L143.338 2.37599C139.594 17.736 133.546 32.52 126.154 42.312C124.906 41.064 122.026 38.76 120.394 37.704C127.498 28.776 133.066 14.952 136.234 0.839996ZM134.602 41.544L141.61 42.984C138.634 55.56 133.45 67.752 127.594 75.816C126.154 74.664 123.082 72.744 121.354 71.88C127.306 64.488 131.914 53.064 134.602 41.544ZM135.37 18.888H178.57V25.608H132.586L135.37 18.888ZM150.25 21.672H157.45V79.944C157.45 84.072 156.586 86.184 153.898 87.336C151.306 88.584 147.178 88.776 141.226 88.776C140.746 86.76 139.69 83.592 138.634 81.48C143.146 81.672 147.274 81.576 148.618 81.576C149.866 81.576 150.25 81.192 150.25 79.944V21.672ZM164.362 42.984L170.794 40.872C176.362 50.952 181.162 64.2 182.794 73.128L175.978 75.432C174.442 66.6 169.642 53.064 164.362 42.984ZM176.458 18.888H177.418L178.666 18.696L183.658 19.752C182.314 26.856 180.682 35.112 179.434 40.296L173.194 39.144C174.25 34.344 175.498 26.28 176.458 19.944V18.888ZM116.938 0.743998L123.754 2.856C117.418 19.176 107.53 35.4 97.1618 46.152C96.3938 44.52 94.3778 40.68 93.0338 39.048C102.538 29.736 111.562 15.336 116.938 0.743998ZM106.954 25.512L113.674 18.696L113.866 18.792V88.584H106.954V25.512ZM230.506 5.352H272.65V12.072H230.506V5.352ZM227.242 39.048H280.042V45.96H227.242V39.048ZM249.898 26.28H257.098V79.656C257.098 83.976 256.042 86.088 253.066 87.24C249.898 88.392 244.906 88.584 237.226 88.488C236.842 86.568 235.594 83.4 234.634 81.48C240.682 81.672 246.058 81.672 247.786 81.576C249.418 81.48 249.898 81 249.898 79.56V26.28ZM270.058 5.352H271.786L273.322 4.96799L278.026 8.424C272.266 16.584 263.338 25.896 255.658 31.656C254.602 30.312 252.586 28.392 251.338 27.432C258.25 22.248 266.218 13.224 270.058 6.984V5.352ZM191.722 20.232H223.306V26.952H191.722V20.232ZM206.218 0.455996L213.034 1.224C209.386 20.424 203.338 46.344 199.018 62.28L192.97 59.112C197.194 44.424 202.954 18.696 206.218 0.455996ZM196.522 56.04L200.554 51.048C211.306 57.096 223.978 66.312 229.738 73.416L225.418 79.272C219.658 72.072 207.274 62.28 196.522 56.04ZM220.906 20.232H222.058L223.402 19.944L227.722 20.808C225.13 57.96 214.666 78.312 197.002 88.872C196.042 87.144 194.026 84.552 192.49 83.112C208.522 74.664 218.506 54.312 220.906 21.672V20.232Z" fill="#B98C76"/>
<path d="M310.544 77.64C310.352 78.3867 310.106 79.1973 309.808 80.072C309.509 80.9467 309.178 81.8107 308.816 82.664C308.474 83.5387 308.133 84.36 307.792 85.128H305.68C305.829 84.5307 305.978 83.8907 306.128 83.208C306.298 82.5253 306.458 81.832 306.608 81.128C306.757 80.4453 306.885 79.7733 306.992 79.112C307.12 78.4507 307.226 77.8427 307.312 77.288H310.32L310.544 77.64ZM306.928 65.576C306.928 64.7653 307.12 64.2 307.504 63.88C307.888 63.56 308.346 63.4 308.88 63.4C309.434 63.4 309.904 63.56 310.288 63.88C310.693 64.2 310.896 64.7653 310.896 65.576C310.896 66.344 310.693 66.8987 310.288 67.24C309.904 67.5813 309.434 67.752 308.88 67.752C308.346 67.752 307.888 67.5813 307.504 67.24C307.12 66.8987 306.928 66.344 306.928 65.576Z" fill="#D3D3D3"/>
</svg>
