<svg width="580" height="94" viewBox="0 0 580 94" fill="none" xmlns="http://www.w3.org/2000/svg">
<path d="M8.88 52.528C10.992 52.528 12.688 53.264 13.968 54.736C15.2693 56.208 15.92 58.4267 15.92 61.392C15.92 63.3333 15.6213 64.976 15.024 66.32C14.448 67.6427 13.6267 68.6453 12.56 69.328C11.5147 69.9893 10.2773 70.32 8.848 70.32C7.97333 70.32 7.19467 70.2027 6.512 69.968C5.82933 69.7333 5.24267 69.4347 4.752 69.072C4.28267 68.688 3.87733 68.272 3.536 67.824H3.344C3.38667 68.1867 3.42933 68.6453 3.472 69.2C3.51467 69.7547 3.536 70.2347 3.536 70.64V77.68H0.72V52.848H3.024L3.408 55.184H3.536C3.87733 54.6933 4.28267 54.2453 4.752 53.84C5.24267 53.4347 5.81867 53.1147 6.48 52.88C7.16267 52.6453 7.96267 52.528 8.88 52.528ZM8.368 54.896C7.216 54.896 6.288 55.12 5.584 55.568C4.88 55.9947 4.368 56.6453 4.048 57.52C3.728 58.3947 3.55733 59.504 3.536 60.848V61.392C3.536 62.8 3.68533 63.9947 3.984 64.976C4.28267 65.9573 4.784 66.704 5.488 67.216C6.21333 67.728 7.19467 67.984 8.432 67.984C9.47733 67.984 10.3307 67.696 10.992 67.12C11.6747 66.544 12.176 65.7653 12.496 64.784C12.8373 63.7813 13.008 62.64 13.008 61.36C13.008 59.3973 12.624 57.8293 11.856 56.656C11.1093 55.4827 9.94667 54.896 8.368 54.896ZM28.4075 52.528C28.7275 52.528 29.0688 52.5493 29.4315 52.592C29.8155 52.6133 30.1462 52.656 30.4235 52.72L30.0715 55.312C29.7942 55.248 29.4848 55.1947 29.1435 55.152C28.8235 55.1093 28.5142 55.088 28.2155 55.088C27.5542 55.088 26.9248 55.2267 26.3275 55.504C25.7302 55.7813 25.1968 56.176 24.7275 56.688C24.2582 57.1787 23.8848 57.776 23.6075 58.48C23.3515 59.184 23.2235 59.9733 23.2235 60.848V70H20.4075V52.848H22.7115L23.0315 55.984H23.1595C23.5222 55.344 23.9595 54.768 24.4715 54.256C24.9835 53.7227 25.5702 53.3067 26.2315 53.008C26.8928 52.688 27.6182 52.528 28.4075 52.528ZM36.4423 52.848V70H33.6263V52.848H36.4423ZM35.0663 46.416C35.4929 46.416 35.8663 46.5653 36.1863 46.864C36.5276 47.1413 36.6983 47.5893 36.6983 48.208C36.6983 48.8053 36.5276 49.2533 36.1863 49.552C35.8663 49.8507 35.4929 50 35.0663 50C34.5969 50 34.2023 49.8507 33.8823 49.552C33.5623 49.2533 33.4023 48.8053 33.4023 48.208C33.4023 47.5893 33.5623 47.1413 33.8823 46.864C34.2023 46.5653 34.5969 46.416 35.0663 46.416ZM50.1323 52.528C52.1803 52.528 53.7269 53.0293 54.7723 54.032C55.8176 55.0133 56.3403 56.6133 56.3403 58.832V70H53.5563V59.024C53.5563 57.6373 53.2469 56.6027 52.6283 55.92C52.0096 55.2373 51.0389 54.896 49.7163 54.896C47.8176 54.896 46.5056 55.4293 45.7803 56.496C45.0549 57.5627 44.6923 59.0987 44.6923 61.104V70H41.8763V52.848H44.1483L44.5643 55.184H44.7243C45.1083 54.5867 45.5776 54.096 46.1323 53.712C46.7083 53.3067 47.3376 53.008 48.0203 52.816C48.7029 52.624 49.4069 52.528 50.1323 52.528ZM67.3855 68.016C67.8122 68.016 68.2495 67.984 68.6975 67.92C69.1455 67.8347 69.5082 67.7493 69.7855 67.664V69.808C69.4868 69.9573 69.0602 70.0747 68.5055 70.16C67.9508 70.2667 67.4175 70.32 66.9055 70.32C66.0095 70.32 65.1775 70.1707 64.4095 69.872C63.6628 69.552 63.0548 69.008 62.5855 68.24C62.1162 67.472 61.8815 66.3947 61.8815 65.008V55.024H59.4495V53.68L61.9135 52.56L63.0335 48.912H64.6975V52.848H69.6575V55.024H64.6975V64.944C64.6975 65.9893 64.9428 66.768 65.4335 67.28C65.9455 67.7707 66.5962 68.016 67.3855 68.016Z" fill="#DADAAA"/>
<path d="M71.78 61.232C71.78 59.4827 71.94 57.776 72.26 56.112C72.6013 54.448 73.124 52.8587 73.828 51.344C74.532 49.8293 75.4173 48.432 76.484 47.152H79.14C78.1587 48.4747 77.3267 49.904 76.644 51.44C75.9827 52.976 75.4813 54.5653 75.14 56.208C74.7987 57.8507 74.628 59.5147 74.628 61.2C74.628 62.8427 74.7987 64.4747 75.14 66.096C75.4813 67.7173 75.9827 69.2747 76.644 70.768C77.3053 72.2827 78.1267 73.712 79.108 75.056H76.484C75.4173 73.7973 74.532 72.4213 73.828 70.928C73.124 69.456 72.6013 67.8987 72.26 66.256C71.94 64.6133 71.78 62.9387 71.78 61.232ZM572.289 61.232C572.289 62.9387 572.118 64.6133 571.777 66.256C571.457 67.8987 570.945 69.456 570.241 70.928C569.558 72.4213 568.673 73.7973 567.585 75.056H564.961C565.942 73.712 566.763 72.2827 567.425 70.768C568.086 69.2747 568.587 67.7173 568.929 66.096C569.27 64.4747 569.441 62.8427 569.441 61.2C569.441 59.5147 569.27 57.8507 568.929 56.208C568.587 54.5653 568.086 52.976 567.425 51.44C566.763 49.904 565.931 48.4747 564.929 47.152H567.585C568.673 48.432 569.558 49.8293 570.241 51.344C570.945 52.8587 571.457 54.448 571.777 56.112C572.118 57.776 572.289 59.4827 572.289 61.232Z" fill="#5C9EFC"/>
<path d="M91.1978 47.152C91.0058 47.9627 90.8031 48.8373 90.5898 49.776C90.3764 50.7147 90.1844 51.632 90.0138 52.528C89.8431 53.424 89.7044 54.2453 89.5978 54.992H86.5578L86.3338 54.64C86.5258 53.8933 86.7711 53.0933 87.0698 52.24C87.3684 51.3653 87.6991 50.4907 88.0618 49.616C88.4244 48.7413 88.7764 47.92 89.1178 47.152H91.1978ZM85.2778 47.152C85.0858 47.9627 84.8831 48.8373 84.6698 49.776C84.4564 50.7147 84.2644 51.632 84.0938 52.528C83.9231 53.424 83.7844 54.2453 83.6778 54.992H80.6698L80.4778 54.64C80.6698 53.8933 80.9151 53.0933 81.2138 52.24C81.5124 51.3653 81.8324 50.4907 82.1738 49.616C82.5364 48.7413 82.8884 47.92 83.2298 47.152H85.2778ZM563.573 47.504C563.381 48.2507 563.135 49.0613 562.837 49.936C562.538 50.8107 562.207 51.6853 561.845 52.56C561.503 53.4133 561.162 54.224 560.821 54.992H558.709C558.922 54.1813 559.125 53.3173 559.317 52.4C559.53 51.4613 559.722 50.544 559.893 49.648C560.085 48.7307 560.234 47.8987 560.341 47.152H563.349L563.573 47.504ZM557.653 47.504C557.461 48.2507 557.215 49.0613 556.917 49.936C556.618 50.8107 556.287 51.6853 555.925 52.56C555.583 53.4133 555.242 54.224 554.901 54.992H552.853C553.002 54.3947 553.151 53.7547 553.301 53.072C553.45 52.3893 553.589 51.7067 553.717 51.024C553.866 50.32 553.994 49.6373 554.101 48.976C554.229 48.3147 554.335 47.7067 554.421 47.152H557.429L557.653 47.504Z" fill="white"/>
<path d="M130.666 33.808H154.378V67.408C150.666 68.624 146.922 69.52 143.146 70.096C139.37 70.672 135.082 70.96 130.282 70.96C123.178 70.96 117.194 69.552 112.33 66.736C107.466 63.856 103.754 59.792 101.194 54.544C98.6978 49.232 97.4498 42.96 97.4498 35.728C97.4498 28.56 98.8578 22.352 101.674 17.104C104.49 11.856 108.522 7.792 113.77 4.912C119.082 1.968 125.482 0.495996 132.97 0.495996C136.81 0.495996 140.426 0.847996 143.818 1.55199C147.274 2.256 150.474 3.248 153.418 4.528L150.154 12.016C147.722 10.928 144.97 10 141.898 9.232C138.89 8.464 135.754 8.08 132.49 8.08C127.05 8.08 122.378 9.2 118.474 11.44C114.57 13.68 111.594 16.88 109.546 21.04C107.498 25.136 106.474 30.032 106.474 35.728C106.474 41.168 107.338 46 109.066 50.224C110.858 54.384 113.642 57.648 117.418 60.016C121.194 62.32 126.154 63.472 132.298 63.472C134.346 63.472 136.138 63.408 137.674 63.28C139.274 63.088 140.714 62.864 141.994 62.608C143.338 62.352 144.586 62.096 145.738 61.84V41.488H130.666V33.808ZM212.606 18.544V70H205.694L204.446 63.184H204.062C202.974 64.976 201.566 66.448 199.838 67.6C198.11 68.752 196.222 69.584 194.174 70.096C192.126 70.672 189.982 70.96 187.742 70.96C183.646 70.96 180.19 70.32 177.374 69.04C174.622 67.696 172.542 65.648 171.134 62.896C169.726 60.144 169.022 56.592 169.022 52.24V18.544H177.566V51.664C177.566 55.76 178.494 58.832 180.35 60.88C182.206 62.928 185.086 63.952 188.99 63.952C192.83 63.952 195.838 63.248 198.014 61.84C200.254 60.368 201.822 58.256 202.718 55.504C203.678 52.688 204.158 49.296 204.158 45.328V18.544H212.606ZM246.125 64.048C247.405 64.048 248.717 63.952 250.061 63.76C251.405 63.504 252.493 63.248 253.325 62.992V69.424C252.429 69.872 251.149 70.224 249.485 70.48C247.821 70.8 246.221 70.96 244.685 70.96C241.997 70.96 239.501 70.512 237.197 69.616C234.957 68.656 233.133 67.024 231.725 64.72C230.317 62.416 229.613 59.184 229.613 55.024V25.072H222.317V21.04L229.709 17.68L233.069 6.736H238.061V18.544H252.941V25.072H238.061V54.832C238.061 57.968 238.797 60.304 240.269 61.84C241.805 63.312 243.757 64.048 246.125 64.048ZM283.501 17.584C287.917 17.584 291.693 18.544 294.829 20.464C298.029 22.384 300.461 25.104 302.125 28.624C303.853 32.08 304.717 36.144 304.717 40.816V45.904H269.485C269.613 51.728 271.085 56.176 273.901 59.248C276.781 62.256 280.781 63.76 285.901 63.76C289.165 63.76 292.045 63.472 294.541 62.896C297.101 62.256 299.725 61.36 302.413 60.208V67.6C299.789 68.752 297.197 69.584 294.637 70.096C292.077 70.672 289.037 70.96 285.517 70.96C280.653 70.96 276.333 69.968 272.557 67.984C268.845 66 265.933 63.056 263.821 59.152C261.773 55.184 260.749 50.352 260.749 44.656C260.749 39.024 261.677 34.192 263.533 30.16C265.453 26.128 268.109 23.024 271.501 20.848C274.957 18.672 278.957 17.584 283.501 17.584ZM283.405 24.496C279.373 24.496 276.173 25.808 273.805 28.432C271.501 30.992 270.125 34.576 269.677 39.184H295.885C295.885 36.24 295.437 33.68 294.541 31.504C293.645 29.328 292.269 27.632 290.413 26.416C288.621 25.136 286.285 24.496 283.405 24.496ZM342.584 17.584C348.728 17.584 353.368 19.088 356.504 22.096C359.64 25.04 361.208 29.84 361.208 36.496V70H352.856V37.072C352.856 32.912 351.928 29.808 350.072 27.76C348.216 25.712 345.304 24.688 341.336 24.688C335.64 24.688 331.704 26.288 329.528 29.488C327.352 32.688 326.264 37.296 326.264 43.312V70H317.816V18.544H324.632L325.88 25.552H326.36C327.512 23.76 328.92 22.288 330.584 21.136C332.312 19.92 334.2 19.024 336.248 18.448C338.296 17.872 340.408 17.584 342.584 17.584ZM424.946 70H416.306V9.04H394.898V1.456H446.258V9.04H424.946V70ZM467.242 17.68C473.514 17.68 478.154 19.056 481.162 21.808C484.17 24.56 485.674 28.944 485.674 34.96V70H479.53L477.898 62.704H477.514C476.042 64.56 474.506 66.128 472.906 67.408C471.37 68.624 469.578 69.52 467.53 70.096C465.546 70.672 463.114 70.96 460.234 70.96C457.162 70.96 454.378 70.416 451.882 69.328C449.45 68.24 447.53 66.576 446.122 64.336C444.714 62.032 444.01 59.152 444.01 55.696C444.01 50.576 446.026 46.64 450.058 43.888C454.09 41.072 460.298 39.536 468.682 39.28L477.418 38.992V35.92C477.418 31.632 476.49 28.656 474.634 26.992C472.778 25.328 470.154 24.496 466.762 24.496C464.074 24.496 461.514 24.912 459.082 25.744C456.65 26.512 454.378 27.408 452.266 28.432L449.674 22.096C451.914 20.88 454.57 19.856 457.642 19.024C460.714 18.128 463.914 17.68 467.242 17.68ZM469.738 45.136C463.338 45.392 458.89 46.416 456.394 48.208C453.962 50 452.746 52.528 452.746 55.792C452.746 58.672 453.61 60.784 455.338 62.128C457.13 63.472 459.402 64.144 462.154 64.144C466.506 64.144 470.122 62.96 473.002 60.592C475.882 58.16 477.322 54.448 477.322 49.456V44.848L469.738 45.136ZM519.806 17.584C523.198 17.584 526.238 18.224 528.926 19.504C531.678 20.784 534.014 22.736 535.934 25.36H536.414L537.566 18.544H544.286V70.864C544.286 75.728 543.454 79.792 541.79 83.056C540.126 86.384 537.598 88.88 534.206 90.544C530.814 92.208 526.494 93.04 521.246 93.04C517.534 93.04 514.11 92.752 510.974 92.176C507.902 91.664 505.15 90.864 502.718 89.776V82C504.382 82.832 506.206 83.536 508.19 84.112C510.174 84.752 512.318 85.232 514.622 85.552C516.926 85.872 519.294 86.032 521.726 86.032C526.142 86.032 529.598 84.72 532.094 82.096C534.654 79.536 535.934 76.016 535.934 71.536V69.52C535.934 68.752 535.966 67.664 536.03 66.256C536.094 64.784 536.158 63.76 536.222 63.184H535.838C534.046 65.808 531.806 67.76 529.118 69.04C526.494 70.32 523.422 70.96 519.902 70.96C513.246 70.96 508.03 68.624 504.254 63.952C500.542 59.28 498.686 52.752 498.686 44.368C498.686 38.864 499.518 34.128 501.182 30.16C502.91 26.128 505.342 23.024 508.478 20.848C511.614 18.672 515.39 17.584 519.806 17.584ZM520.958 24.688C518.078 24.688 515.614 25.456 513.566 26.992C511.582 28.528 510.046 30.768 508.958 33.712C507.934 36.656 507.422 40.24 507.422 44.464C507.422 50.8 508.574 55.664 510.878 59.056C513.246 62.384 516.67 64.048 521.15 64.048C523.774 64.048 526.014 63.728 527.87 63.088C529.726 62.384 531.262 61.328 532.478 59.92C533.694 58.448 534.59 56.592 535.166 54.352C535.742 52.112 536.03 49.456 536.03 46.384V44.368C536.03 39.696 535.486 35.92 534.398 33.04C533.374 30.16 531.742 28.048 529.502 26.704C527.262 25.36 524.414 24.688 520.958 24.688Z" fill="#B98C76"/>
<path d="M579.419 66.64C579.227 67.3867 578.981 68.1973 578.683 69.072C578.384 69.9467 578.053 70.8107 577.691 71.664C577.349 72.5387 577.008 73.36 576.667 74.128H574.555C574.704 73.5307 574.853 72.8907 575.003 72.208C575.173 71.5253 575.333 70.832 575.483 70.128C575.632 69.4453 575.76 68.7733 575.867 68.112C575.995 67.4507 576.101 66.8427 576.187 66.288H579.195L579.419 66.64ZM575.803 54.576C575.803 53.7653 575.995 53.2 576.379 52.88C576.763 52.56 577.221 52.4 577.755 52.4C578.309 52.4 578.779 52.56 579.163 52.88C579.568 53.2 579.771 53.7653 579.771 54.576C579.771 55.344 579.568 55.8987 579.163 56.24C578.779 56.5813 578.309 56.752 577.755 56.752C577.221 56.752 576.763 56.5813 576.379 56.24C575.995 55.8987 575.803 55.344 575.803 54.576Z" fill="#D3D3D3"/>
</svg>
