<svg width="756" height="97" viewBox="0 0 756 97" fill="none" xmlns="http://www.w3.org/2000/svg">
<path d="M8.88 55.528C10.992 55.528 12.688 56.264 13.968 57.736C15.2693 59.208 15.92 61.4267 15.92 64.392C15.92 66.3333 15.6213 67.976 15.024 69.32C14.448 70.6427 13.6267 71.6453 12.56 72.328C11.5147 72.9893 10.2773 73.32 8.848 73.32C7.97333 73.32 7.19467 73.2027 6.512 72.968C5.82933 72.7333 5.24267 72.4347 4.752 72.072C4.28267 71.688 3.87733 71.272 3.536 70.824H3.344C3.38667 71.1867 3.42933 71.6453 3.472 72.2C3.51467 72.7547 3.536 73.2347 3.536 73.64V80.68H0.72V55.848H3.024L3.408 58.184H3.536C3.87733 57.6933 4.28267 57.2453 4.752 56.84C5.24267 56.4347 5.81867 56.1147 6.48 55.88C7.16267 55.6453 7.96267 55.528 8.88 55.528ZM8.368 57.896C7.216 57.896 6.288 58.12 5.584 58.568C4.88 58.9947 4.368 59.6453 4.048 60.52C3.728 61.3947 3.55733 62.504 3.536 63.848V64.392C3.536 65.8 3.68533 66.9947 3.984 67.976C4.28267 68.9573 4.784 69.704 5.488 70.216C6.21333 70.728 7.19467 70.984 8.432 70.984C9.47733 70.984 10.3307 70.696 10.992 70.12C11.6747 69.544 12.176 68.7653 12.496 67.784C12.8373 66.7813 13.008 65.64 13.008 64.36C13.008 62.3973 12.624 60.8293 11.856 59.656C11.1093 58.4827 9.94667 57.896 8.368 57.896ZM28.4075 55.528C28.7275 55.528 29.0688 55.5493 29.4315 55.592C29.8155 55.6133 30.1462 55.656 30.4235 55.72L30.0715 58.312C29.7942 58.248 29.4848 58.1947 29.1435 58.152C28.8235 58.1093 28.5142 58.088 28.2155 58.088C27.5542 58.088 26.9248 58.2267 26.3275 58.504C25.7302 58.7813 25.1968 59.176 24.7275 59.688C24.2582 60.1787 23.8848 60.776 23.6075 61.48C23.3515 62.184 23.2235 62.9733 23.2235 63.848V73H20.4075V55.848H22.7115L23.0315 58.984H23.1595C23.5222 58.344 23.9595 57.768 24.4715 57.256C24.9835 56.7227 25.5702 56.3067 26.2315 56.008C26.8928 55.688 27.6182 55.528 28.4075 55.528ZM36.4423 55.848V73H33.6263V55.848H36.4423ZM35.0663 49.416C35.4929 49.416 35.8663 49.5653 36.1863 49.864C36.5276 50.1413 36.6983 50.5893 36.6983 51.208C36.6983 51.8053 36.5276 52.2533 36.1863 52.552C35.8663 52.8507 35.4929 53 35.0663 53C34.5969 53 34.2023 52.8507 33.8823 52.552C33.5623 52.2533 33.4023 51.8053 33.4023 51.208C33.4023 50.5893 33.5623 50.1413 33.8823 49.864C34.2023 49.5653 34.5969 49.416 35.0663 49.416ZM50.1323 55.528C52.1803 55.528 53.7269 56.0293 54.7723 57.032C55.8176 58.0133 56.3403 59.6133 56.3403 61.832V73H53.5563V62.024C53.5563 60.6373 53.2469 59.6027 52.6283 58.92C52.0096 58.2373 51.0389 57.896 49.7163 57.896C47.8176 57.896 46.5056 58.4293 45.7803 59.496C45.0549 60.5627 44.6923 62.0987 44.6923 64.104V73H41.8763V55.848H44.1483L44.5643 58.184H44.7243C45.1083 57.5867 45.5776 57.096 46.1323 56.712C46.7083 56.3067 47.3376 56.008 48.0203 55.816C48.7029 55.624 49.4069 55.528 50.1323 55.528ZM67.3855 71.016C67.8122 71.016 68.2495 70.984 68.6975 70.92C69.1455 70.8347 69.5082 70.7493 69.7855 70.664V72.808C69.4868 72.9573 69.0602 73.0747 68.5055 73.16C67.9508 73.2667 67.4175 73.32 66.9055 73.32C66.0095 73.32 65.1775 73.1707 64.4095 72.872C63.6628 72.552 63.0548 72.008 62.5855 71.24C62.1162 70.472 61.8815 69.3947 61.8815 68.008V58.024H59.4495V56.68L61.9135 55.56L63.0335 51.912H64.6975V55.848H69.6575V58.024H64.6975V67.944C64.6975 68.9893 64.9428 69.768 65.4335 70.28C65.9455 70.7707 66.5962 71.016 67.3855 71.016Z" fill="#DADAAA"/>
<path d="M71.78 64.232C71.78 62.4827 71.94 60.776 72.26 59.112C72.6013 57.448 73.124 55.8587 73.828 54.344C74.532 52.8293 75.4173 51.432 76.484 50.152H79.14C78.1587 51.4747 77.3267 52.904 76.644 54.44C75.9827 55.976 75.4813 57.5653 75.14 59.208C74.7987 60.8507 74.628 62.5147 74.628 64.2C74.628 65.8427 74.7987 67.4747 75.14 69.096C75.4813 70.7173 75.9827 72.2747 76.644 73.768C77.3053 75.2827 78.1267 76.712 79.108 78.056H76.484C75.4173 76.7973 74.532 75.4213 73.828 73.928C73.124 72.456 72.6013 70.8987 72.26 69.256C71.94 67.6133 71.78 65.9387 71.78 64.232ZM748.445 64.232C748.445 65.9387 748.274 67.6133 747.933 69.256C747.613 70.8987 747.101 72.456 746.397 73.928C745.714 75.4213 744.829 76.7973 743.741 78.056H741.117C742.098 76.712 742.92 75.2827 743.581 73.768C744.242 72.2747 744.744 70.7173 745.085 69.096C745.426 67.4747 745.597 65.8427 745.597 64.2C745.597 62.5147 745.426 60.8507 745.085 59.208C744.744 57.5653 744.242 55.976 743.581 54.44C742.92 52.904 742.088 51.4747 741.085 50.152H743.741C744.829 51.432 745.714 52.8293 746.397 54.344C747.101 55.8587 747.613 57.448 747.933 59.112C748.274 60.776 748.445 62.4827 748.445 64.232Z" fill="#5C9EFC"/>
<path d="M91.1978 50.152C91.0058 50.9627 90.8031 51.8373 90.5898 52.776C90.3764 53.7147 90.1844 54.632 90.0138 55.528C89.8431 56.424 89.7044 57.2453 89.5978 57.992H86.5578L86.3338 57.64C86.5258 56.8933 86.7711 56.0933 87.0698 55.24C87.3684 54.3653 87.6991 53.4907 88.0618 52.616C88.4244 51.7413 88.7764 50.92 89.1178 50.152H91.1978ZM85.2778 50.152C85.0858 50.9627 84.8831 51.8373 84.6698 52.776C84.4564 53.7147 84.2644 54.632 84.0938 55.528C83.9231 56.424 83.7844 57.2453 83.6778 57.992H80.6698L80.4778 57.64C80.6698 56.8933 80.9151 56.0933 81.2138 55.24C81.5124 54.3653 81.8324 53.4907 82.1738 52.616C82.5364 51.7413 82.8884 50.92 83.2298 50.152H85.2778ZM739.729 50.504C739.537 51.2507 739.292 52.0613 738.993 52.936C738.694 53.8107 738.364 54.6853 738.001 55.56C737.66 56.4133 737.318 57.224 736.977 57.992H734.865C735.078 57.1813 735.281 56.3173 735.473 55.4C735.686 54.4613 735.878 53.544 736.049 52.648C736.241 51.7307 736.39 50.8987 736.497 50.152H739.505L739.729 50.504ZM733.809 50.504C733.617 51.2507 733.372 52.0613 733.073 52.936C732.774 53.8107 732.444 54.6853 732.081 55.56C731.74 56.4133 731.398 57.224 731.057 57.992H729.009C729.158 57.3947 729.308 56.7547 729.457 56.072C729.606 55.3893 729.745 54.7067 729.873 54.024C730.022 53.32 730.15 52.6373 730.257 51.976C730.385 51.3147 730.492 50.7067 730.577 50.152H733.585L733.809 50.504Z" fill="white"/>
<path d="M141.418 20.488C141.418 25.16 139.946 28.872 137.002 31.624C134.058 34.312 130.122 36.04 125.194 36.808V37.192C130.954 37.96 135.338 39.752 138.346 42.568C141.354 45.384 142.858 49.064 142.858 53.608C142.858 57.64 141.834 61.192 139.786 64.264C137.738 67.272 134.666 69.64 130.57 71.368C126.474 73.096 121.354 73.96 115.21 73.96C111.498 73.96 107.946 73.672 104.554 73.096C101.226 72.584 98.1218 71.624 95.2418 70.216V62.344C97.2258 63.304 99.3378 64.136 101.578 64.84C103.882 65.48 106.186 65.992 108.49 66.376C110.794 66.696 113.002 66.856 115.114 66.856C121.258 66.856 125.898 65.704 129.034 63.4C132.234 61.096 133.834 57.832 133.834 53.608C133.834 49.256 131.978 46.088 128.266 44.104C124.554 42.12 119.37 41.128 112.714 41.128H102.922V33.928H112.234C116.778 33.928 120.522 33.416 123.466 32.392C126.474 31.368 128.714 29.928 130.186 28.072C131.722 26.152 132.49 23.912 132.49 21.352C132.49 17.896 131.21 15.24 128.65 13.384C126.09 11.528 122.762 10.6 118.666 10.6C114.378 10.6 110.794 11.144 107.914 12.232C105.098 13.32 102.346 14.728 99.6578 16.456L95.5298 10.6C97.3218 9.256 99.3698 8.072 101.674 7.048C104.042 5.96 106.666 5.09599 109.546 4.456C112.426 3.816 115.498 3.496 118.762 3.496C123.69 3.496 127.818 4.232 131.146 5.704C134.538 7.176 137.098 9.192 138.826 11.752C140.554 14.248 141.418 17.16 141.418 20.488ZM194.399 21.544V65.896H201.887V90.856H193.727V73H157.919V90.856H149.855V65.896H153.983C156.927 61.8 159.359 57.352 161.279 52.552C163.263 47.688 164.735 42.632 165.695 37.384C166.719 32.072 167.263 26.792 167.327 21.544H194.399ZM174.815 28.168C174.559 32.52 173.887 37.032 172.799 41.704C171.711 46.312 170.303 50.728 168.575 54.952C166.911 59.176 164.959 62.824 162.719 65.896H186.239V28.168H174.815ZM236.453 20.584C242.789 20.584 247.877 22.792 251.717 27.208C255.621 31.624 257.573 38.28 257.573 47.176C257.573 53 256.677 57.928 254.885 61.96C253.156 65.928 250.693 68.936 247.493 70.984C244.357 72.968 240.645 73.96 236.357 73.96C233.733 73.96 231.397 73.608 229.349 72.904C227.301 72.2 225.541 71.304 224.069 70.216C222.661 69.064 221.445 67.816 220.421 66.472H219.845C219.973 67.56 220.101 68.936 220.229 70.6C220.357 72.264 220.421 73.704 220.421 74.92V96.04H211.973V21.544H218.885L220.037 28.552H220.421C221.445 27.08 222.661 25.736 224.069 24.52C225.541 23.304 227.269 22.344 229.253 21.64C231.301 20.936 233.701 20.584 236.453 20.584ZM234.917 27.688C231.461 27.688 228.677 28.36 226.565 29.704C224.453 30.984 222.917 32.936 221.957 35.56C220.997 38.184 220.485 41.512 220.421 45.544V47.176C220.421 51.4 220.869 54.984 221.765 57.928C222.661 60.872 224.165 63.112 226.277 64.648C228.453 66.184 231.397 66.952 235.109 66.952C238.245 66.952 240.805 66.088 242.789 64.36C244.837 62.632 246.341 60.296 247.301 57.352C248.325 54.344 248.837 50.92 248.837 47.08C248.837 41.192 247.685 36.488 245.381 32.968C243.141 29.448 239.653 27.688 234.917 27.688ZM290.523 20.68C296.795 20.68 301.435 22.056 304.443 24.808C307.451 27.56 308.955 31.944 308.955 37.96V73H302.811L301.179 65.704H300.795C299.323 67.56 297.787 69.128 296.187 70.408C294.651 71.624 292.859 72.52 290.811 73.096C288.827 73.672 286.395 73.96 283.515 73.96C280.443 73.96 277.659 73.416 275.163 72.328C272.731 71.24 270.811 69.576 269.403 67.336C267.995 65.032 267.291 62.152 267.291 58.696C267.291 53.576 269.307 49.64 273.339 46.888C277.371 44.072 283.579 42.536 291.963 42.28L300.699 41.992V38.92C300.699 34.632 299.771 31.656 297.915 29.992C296.059 28.328 293.435 27.496 290.043 27.496C287.355 27.496 284.795 27.912 282.363 28.744C279.931 29.512 277.659 30.408 275.547 31.432L272.955 25.096C275.195 23.88 277.851 22.856 280.923 22.024C283.995 21.128 287.195 20.68 290.523 20.68ZM293.019 48.136C286.619 48.392 282.171 49.416 279.675 51.208C277.243 53 276.027 55.528 276.027 58.792C276.027 61.672 276.891 63.784 278.619 65.128C280.411 66.472 282.683 67.144 285.435 67.144C289.787 67.144 293.403 65.96 296.283 63.592C299.163 61.16 300.603 57.448 300.603 52.456V47.848L293.019 48.136ZM366.224 34.504C366.224 37.704 365.264 40.2 363.344 41.992C361.424 43.784 358.96 45 355.952 45.64V46.024C359.152 46.472 361.936 47.624 364.304 49.48C366.672 51.272 367.856 54.088 367.856 57.928C367.856 60.104 367.44 62.12 366.608 63.976C365.84 65.832 364.624 67.432 362.96 68.776C361.296 70.12 359.152 71.176 356.528 71.944C353.904 72.648 350.736 73 347.024 73H324.848V21.544H346.928C350.576 21.544 353.84 21.96 356.72 22.792C359.664 23.56 361.968 24.904 363.632 26.824C365.36 28.68 366.224 31.24 366.224 34.504ZM359.12 57.928C359.12 54.984 358 52.872 355.76 51.592C353.52 50.312 350.224 49.672 345.872 49.672H333.296V66.184H346.064C350.288 66.184 353.52 65.576 355.76 64.36C358 63.08 359.12 60.936 359.12 57.928ZM357.68 35.56C357.68 33.128 356.784 31.368 354.992 30.28C353.264 29.128 350.416 28.552 346.448 28.552H333.296V42.664H344.911C349.072 42.664 352.24 42.088 354.416 40.936C356.592 39.784 357.68 37.992 357.68 35.56ZM400.8 73.96C396.256 73.96 392.192 73.032 388.608 71.176C385.088 69.32 382.304 66.44 380.256 62.536C378.272 58.632 377.28 53.64 377.28 47.56C377.28 41.224 378.336 36.072 380.448 32.104C382.56 28.136 385.408 25.224 388.992 23.368C392.64 21.512 396.768 20.584 401.376 20.584C404 20.584 406.528 20.872 408.96 21.448C411.392 21.96 413.376 22.6 414.912 23.368L412.32 30.376C410.784 29.8 408.992 29.256 406.944 28.744C404.896 28.232 402.976 27.976 401.184 27.976C397.728 27.976 394.88 28.712 392.64 30.184C390.4 31.656 388.736 33.832 387.648 36.712C386.56 39.592 386.016 43.176 386.016 47.464C386.016 51.56 386.56 55.048 387.648 57.928C388.736 60.808 390.368 62.984 392.544 64.456C394.72 65.928 397.44 66.664 400.704 66.664C403.52 66.664 405.984 66.376 408.096 65.8C410.272 65.224 412.256 64.52 414.048 63.688V71.176C412.32 72.072 410.4 72.744 408.288 73.192C406.24 73.704 403.744 73.96 400.8 73.96ZM461.805 28.648H445.005V73H436.653V28.648H420.045V21.544H461.805V28.648ZM513.317 34.504C513.317 37.704 512.357 40.2 510.437 41.992C508.517 43.784 506.053 45 503.045 45.64V46.024C506.245 46.472 509.029 47.624 511.397 49.48C513.765 51.272 514.949 54.088 514.949 57.928C514.949 60.104 514.533 62.12 513.701 63.976C512.933 65.832 511.717 67.432 510.053 68.776C508.389 70.12 506.245 71.176 503.621 71.944C500.997 72.648 497.829 73 494.117 73H471.941V21.544H494.021C497.669 21.544 500.933 21.96 503.813 22.792C506.757 23.56 509.061 24.904 510.725 26.824C512.453 28.68 513.317 31.24 513.317 34.504ZM506.213 57.928C506.213 54.984 505.093 52.872 502.853 51.592C500.613 50.312 497.317 49.672 492.965 49.672H480.389V66.184H493.157C497.381 66.184 500.613 65.576 502.853 64.36C505.093 63.08 506.213 60.936 506.213 57.928ZM504.773 35.56C504.773 33.128 503.877 31.368 502.085 30.28C500.357 29.128 497.509 28.552 493.541 28.552H480.389V42.664H492.005C496.165 42.664 499.333 42.088 501.509 40.936C503.685 39.784 504.773 37.992 504.773 35.56ZM519.19 21.544H528.214L539.35 50.824C539.99 52.552 540.566 54.216 541.078 55.816C541.654 57.416 542.166 58.984 542.614 60.52C543.062 61.992 543.414 63.432 543.67 64.84H544.054C544.438 63.24 545.046 61.16 545.878 58.6C546.71 55.976 547.574 53.352 548.47 50.728L558.934 21.544H568.054L545.878 80.104C544.662 83.304 543.222 86.088 541.558 88.456C539.958 90.888 537.974 92.744 535.606 94.024C533.302 95.368 530.486 96.04 527.158 96.04C525.622 96.04 524.278 95.944 523.126 95.752C521.974 95.624 520.982 95.464 520.15 95.272V88.552C520.854 88.68 521.686 88.808 522.646 88.936C523.67 89.064 524.726 89.128 525.814 89.128C527.798 89.128 529.494 88.744 530.902 87.976C532.374 87.272 533.622 86.216 534.646 84.808C535.67 83.464 536.534 81.864 537.238 80.008L539.926 73.192L519.19 21.544ZM617.855 0.231998C617.599 3.432 616.799 6.12 615.455 8.296C614.175 10.472 612.255 12.104 609.695 13.192C607.135 14.28 603.807 14.824 599.711 14.824C595.551 14.824 592.191 14.28 589.631 13.192C587.135 12.104 585.311 10.504 584.159 8.392C583.007 6.216 582.303 3.496 582.047 0.231998H589.919C590.239 3.688 591.135 6.02399 592.607 7.23999C594.143 8.39199 596.575 8.96799 599.903 8.96799C602.847 8.96799 605.151 8.35999 606.815 7.144C608.543 5.864 609.567 3.56 609.887 0.231998H617.855ZM584.159 52.936C584.159 53.512 584.127 54.344 584.063 55.432C584.063 56.456 584.031 57.576 583.967 58.792C583.903 59.944 583.839 61.064 583.775 62.152C583.711 63.176 583.647 64.008 583.583 64.648L611.135 21.544H621.503V73H613.631V42.664C613.631 41.64 613.631 40.296 613.631 38.632C613.695 36.968 613.759 35.336 613.823 33.736C613.887 32.072 613.951 30.824 614.015 29.992L586.655 73H576.191V21.544H584.159V52.936ZM673.399 28.648H656.599V73H648.247V28.648H631.639V21.544H673.399V28.648ZM702.47 20.584C706.886 20.584 710.662 21.544 713.798 23.464C716.998 25.384 719.43 28.104 721.094 31.624C722.822 35.08 723.686 39.144 723.686 43.816V48.904H688.454C688.582 54.728 690.054 59.176 692.87 62.248C695.75 65.256 699.75 66.76 704.87 66.76C708.134 66.76 711.014 66.472 713.51 65.896C716.07 65.256 718.694 64.36 721.382 63.208V70.6C718.758 71.752 716.166 72.584 713.606 73.096C711.046 73.672 708.006 73.96 704.486 73.96C699.622 73.96 695.302 72.968 691.526 70.984C687.814 69 684.902 66.056 682.79 62.152C680.742 58.184 679.718 53.352 679.718 47.656C679.718 42.024 680.646 37.192 682.502 33.16C684.422 29.128 687.078 26.024 690.47 23.848C693.926 21.672 697.926 20.584 702.47 20.584ZM702.374 27.496C698.342 27.496 695.142 28.808 692.774 31.432C690.47 33.992 689.094 37.576 688.646 42.184H714.854C714.854 39.24 714.406 36.68 713.51 34.504C712.614 32.328 711.238 30.632 709.382 29.416C707.59 28.136 705.254 27.496 702.374 27.496Z" fill="#B98C76"/>
<path d="M755.575 69.64C755.383 70.3867 755.137 71.1973 754.839 72.072C754.54 72.9467 754.209 73.8107 753.847 74.664C753.505 75.5387 753.164 76.36 752.823 77.128H750.711C750.86 76.5307 751.009 75.8907 751.159 75.208C751.329 74.5253 751.489 73.832 751.639 73.128C751.788 72.4453 751.916 71.7733 752.023 71.112C752.151 70.4507 752.257 69.8427 752.343 69.288H755.351L755.575 69.64ZM751.959 57.576C751.959 56.7653 752.151 56.2 752.535 55.88C752.919 55.56 753.377 55.4 753.911 55.4C754.465 55.4 754.935 55.56 755.319 55.88C755.724 56.2 755.927 56.7653 755.927 57.576C755.927 58.344 755.724 58.8987 755.319 59.24C754.935 59.5813 754.465 59.752 753.911 59.752C753.377 59.752 752.919 59.5813 752.535 59.24C752.151 58.8987 751.959 58.344 751.959 57.576Z" fill="#D3D3D3"/>
</svg>
