<svg width="599" height="84" viewBox="0 0 599 84" fill="none" xmlns="http://www.w3.org/2000/svg">
<path d="M8.88 58.528C10.992 58.528 12.688 59.264 13.968 60.736C15.2693 62.208 15.92 64.4267 15.92 67.392C15.92 69.3333 15.6213 70.976 15.024 72.32C14.448 73.6427 13.6267 74.6453 12.56 75.328C11.5147 75.9893 10.2773 76.32 8.848 76.32C7.97333 76.32 7.19467 76.2027 6.512 75.968C5.82933 75.7333 5.24267 75.4347 4.752 75.072C4.28267 74.688 3.87733 74.272 3.536 73.824H3.344C3.38667 74.1867 3.42933 74.6453 3.472 75.2C3.51467 75.7547 3.536 76.2347 3.536 76.64V83.68H0.72V58.848H3.024L3.408 61.184H3.536C3.87733 60.6933 4.28267 60.2453 4.752 59.84C5.24267 59.4347 5.81867 59.1147 6.48 58.88C7.16267 58.6453 7.96267 58.528 8.88 58.528ZM8.368 60.896C7.216 60.896 6.288 61.12 5.584 61.568C4.88 61.9947 4.368 62.6453 4.048 63.52C3.728 64.3947 3.55733 65.504 3.536 66.848V67.392C3.536 68.8 3.68533 69.9947 3.984 70.976C4.28267 71.9573 4.784 72.704 5.488 73.216C6.21333 73.728 7.19467 73.984 8.432 73.984C9.47733 73.984 10.3307 73.696 10.992 73.12C11.6747 72.544 12.176 71.7653 12.496 70.784C12.8373 69.7813 13.008 68.64 13.008 67.36C13.008 65.3973 12.624 63.8293 11.856 62.656C11.1093 61.4827 9.94667 60.896 8.368 60.896ZM28.4075 58.528C28.7275 58.528 29.0688 58.5493 29.4315 58.592C29.8155 58.6133 30.1462 58.656 30.4235 58.72L30.0715 61.312C29.7942 61.248 29.4848 61.1947 29.1435 61.152C28.8235 61.1093 28.5142 61.088 28.2155 61.088C27.5542 61.088 26.9248 61.2267 26.3275 61.504C25.7302 61.7813 25.1968 62.176 24.7275 62.688C24.2582 63.1787 23.8848 63.776 23.6075 64.48C23.3515 65.184 23.2235 65.9733 23.2235 66.848V76H20.4075V58.848H22.7115L23.0315 61.984H23.1595C23.5222 61.344 23.9595 60.768 24.4715 60.256C24.9835 59.7227 25.5702 59.3067 26.2315 59.008C26.8928 58.688 27.6182 58.528 28.4075 58.528ZM36.4423 58.848V76H33.6263V58.848H36.4423ZM35.0663 52.416C35.4929 52.416 35.8663 52.5653 36.1863 52.864C36.5276 53.1413 36.6983 53.5893 36.6983 54.208C36.6983 54.8053 36.5276 55.2533 36.1863 55.552C35.8663 55.8507 35.4929 56 35.0663 56C34.5969 56 34.2023 55.8507 33.8823 55.552C33.5623 55.2533 33.4023 54.8053 33.4023 54.208C33.4023 53.5893 33.5623 53.1413 33.8823 52.864C34.2023 52.5653 34.5969 52.416 35.0663 52.416ZM50.1323 58.528C52.1803 58.528 53.7269 59.0293 54.7723 60.032C55.8176 61.0133 56.3403 62.6133 56.3403 64.832V76H53.5563V65.024C53.5563 63.6373 53.2469 62.6027 52.6283 61.92C52.0096 61.2373 51.0389 60.896 49.7163 60.896C47.8176 60.896 46.5056 61.4293 45.7803 62.496C45.0549 63.5627 44.6923 65.0987 44.6923 67.104V76H41.8763V58.848H44.1483L44.5643 61.184H44.7243C45.1083 60.5867 45.5776 60.096 46.1323 59.712C46.7083 59.3067 47.3376 59.008 48.0203 58.816C48.7029 58.624 49.4069 58.528 50.1323 58.528ZM67.3855 74.016C67.8122 74.016 68.2495 73.984 68.6975 73.92C69.1455 73.8347 69.5082 73.7493 69.7855 73.664V75.808C69.4868 75.9573 69.0602 76.0747 68.5055 76.16C67.9508 76.2667 67.4175 76.32 66.9055 76.32C66.0095 76.32 65.1775 76.1707 64.4095 75.872C63.6628 75.552 63.0548 75.008 62.5855 74.24C62.1162 73.472 61.8815 72.3947 61.8815 71.008V61.024H59.4495V59.68L61.9135 58.56L63.0335 54.912H64.6975V58.848H69.6575V61.024H64.6975V70.944C64.6975 71.9893 64.9428 72.768 65.4335 73.28C65.9455 73.7707 66.5962 74.016 67.3855 74.016Z" fill="#DADAAA"/>
<path d="M71.78 67.232C71.78 65.4827 71.94 63.776 72.26 62.112C72.6013 60.448 73.124 58.8587 73.828 57.344C74.532 55.8293 75.4173 54.432 76.484 53.152H79.14C78.1587 54.4747 77.3267 55.904 76.644 57.44C75.9827 58.976 75.4813 60.5653 75.14 62.208C74.7987 63.8507 74.628 65.5147 74.628 67.2C74.628 68.8427 74.7987 70.4747 75.14 72.096C75.4813 73.7173 75.9827 75.2747 76.644 76.768C77.3053 78.2827 78.1267 79.712 79.108 81.056H76.484C75.4173 79.7973 74.532 78.4213 73.828 76.928C73.124 75.456 72.6013 73.8987 72.26 72.256C71.94 70.6133 71.78 68.9387 71.78 67.232ZM591.414 67.232C591.414 68.9387 591.243 70.6133 590.902 72.256C590.582 73.8987 590.07 75.456 589.366 76.928C588.683 78.4213 587.798 79.7973 586.71 81.056H584.086C585.067 79.712 585.888 78.2827 586.55 76.768C587.211 75.2747 587.712 73.7173 588.054 72.096C588.395 70.4747 588.566 68.8427 588.566 67.2C588.566 65.5147 588.395 63.8507 588.054 62.208C587.712 60.5653 587.211 58.976 586.55 57.44C585.888 55.904 585.056 54.4747 584.054 53.152H586.71C587.798 54.432 588.683 55.8293 589.366 57.344C590.07 58.8587 590.582 60.448 590.902 62.112C591.243 63.776 591.414 65.4827 591.414 67.232Z" fill="#5C9EFC"/>
<path d="M91.1978 53.152C91.0058 53.9627 90.8031 54.8373 90.5898 55.776C90.3764 56.7147 90.1844 57.632 90.0138 58.528C89.8431 59.424 89.7044 60.2453 89.5978 60.992H86.5578L86.3338 60.64C86.5258 59.8933 86.7711 59.0933 87.0698 58.24C87.3684 57.3653 87.6991 56.4907 88.0618 55.616C88.4244 54.7413 88.7764 53.92 89.1178 53.152H91.1978ZM85.2778 53.152C85.0858 53.9627 84.8831 54.8373 84.6698 55.776C84.4564 56.7147 84.2644 57.632 84.0938 58.528C83.9231 59.424 83.7844 60.2453 83.6778 60.992H80.6698L80.4778 60.64C80.6698 59.8933 80.9151 59.0933 81.2138 58.24C81.5124 57.3653 81.8324 56.4907 82.1738 55.616C82.5364 54.7413 82.8884 53.92 83.2298 53.152H85.2778ZM582.698 53.504C582.506 54.2507 582.26 55.0613 581.962 55.936C581.663 56.8107 581.332 57.6853 580.97 58.56C580.628 59.4133 580.287 60.224 579.946 60.992H577.834C578.047 60.1813 578.25 59.3173 578.442 58.4C578.655 57.4613 578.847 56.544 579.018 55.648C579.21 54.7307 579.359 53.8987 579.466 53.152H582.474L582.698 53.504ZM576.778 53.504C576.586 54.2507 576.34 55.0613 576.042 55.936C575.743 56.8107 575.412 57.6853 575.05 58.56C574.708 59.4133 574.367 60.224 574.026 60.992H571.978C572.127 60.3947 572.276 59.7547 572.426 59.072C572.575 58.3893 572.714 57.7067 572.842 57.024C572.991 56.32 573.119 55.6373 573.226 54.976C573.354 54.3147 573.46 53.7067 573.546 53.152H576.554L576.778 53.504Z" fill="white"/>
<path d="M114.058 8.704C120.97 9.472 129.802 9.856 139.498 9.856C148.714 9.856 158.41 9.27999 165.322 8.512V16.384C158.794 16.864 148.33 17.536 139.498 17.536C129.898 17.536 121.642 17.152 114.058 16.48V8.704ZM117.898 47.392C116.746 51.136 115.978 54.688 115.978 58.24C115.978 65.632 123.466 70.624 138.826 70.624C151.978 70.624 164.362 69.184 171.658 66.88L171.754 75.136C164.842 76.96 152.65 78.4 139.018 78.4C119.53 78.4 108.202 72.064 108.202 59.968C108.202 54.976 109.258 50.464 110.122 46.624L117.898 47.392ZM240.106 4.768C239.242 5.92 238.09 7.648 237.034 9.472C232.714 16.096 223.882 32.032 218.986 41.344C223.594 37.216 228.586 35.392 233.194 35.392C239.626 35.392 244.234 39.52 244.522 47.104C244.714 52.768 244.522 60.064 244.906 64.768C245.194 69.568 248.458 71.68 252.586 71.68C263.338 71.68 269.674 58.432 272.074 48.16L278.506 53.344C273.418 68.8 265.354 79.552 251.434 79.552C241.162 79.552 237.802 73.12 237.514 67.456C237.226 61.792 237.322 54.4 237.034 49.12C236.842 44.992 234.346 42.4 230.026 42.4C222.346 42.4 215.05 50.272 211.402 57.856C208.426 63.52 204.394 74.944 203.05 79.648L194.794 76.768C201.802 57.376 222.826 18.016 228.106 8.8C229.162 6.496 230.41 4.192 231.562 1.31199L240.106 4.768ZM327.274 11.2C337.738 13.024 357.226 12.64 366.73 11.2V18.976C356.458 20.128 337.834 20.128 327.37 18.976L327.274 11.2ZM331.018 50.368C330.154 53.824 329.674 56.512 329.674 59.104C329.674 63.52 332.746 67.84 345.898 67.84C354.442 67.84 361.93 67.072 369.61 65.248L369.802 73.312C363.85 74.56 355.786 75.328 345.802 75.328C329.77 75.328 322.57 69.952 322.57 60.928C322.57 57.76 323.05 54.304 324.106 49.696L331.018 50.368ZM309.034 3.808C308.458 5.44 307.69 8.512 307.306 10.24C305.482 19.168 302.506 36.256 302.506 47.104C302.506 51.712 302.794 55.744 303.37 60.448C305.002 56.128 307.21 50.368 308.842 46.432L312.874 49.6C310.474 56.416 306.922 66.496 306.058 71.104C305.77 72.448 305.578 74.272 305.578 75.424C305.674 76.384 305.77 77.728 305.866 78.784L299.05 79.264C297.13 72.448 295.498 61.408 295.498 48.352C295.498 34.24 298.666 17.824 299.818 9.856C300.106 7.648 300.394 5.248 300.49 3.13599L309.034 3.808ZM420.202 0.831995C419.434 3.424 418.954 6.4 418.378 8.89599C417.034 16.576 413.194 35.104 409.93 44.032C418.282 38.176 426.922 35.776 436.906 35.776C452.17 35.776 461.098 43.552 461.098 54.784C461.098 74.848 440.65 82.24 411.466 79.168L409.45 71.488C431.722 74.56 453.226 70.816 453.226 54.976C453.226 47.872 447.37 42.304 436.138 42.304C424.714 42.304 414.058 46.24 407.722 53.824C406.57 55.264 405.706 56.608 404.746 58.24L397.642 55.744C404.938 41.44 410.026 17.632 411.178 8.41599C411.562 5.34399 411.754 3.04 411.562 0.447994L420.202 0.831995ZM390.346 13.12C395.434 13.984 402.73 14.656 408.49 14.656C420.778 14.656 439.69 13.216 454.762 9.856L454.954 17.248C441.322 19.648 421.738 21.568 408.586 21.568C402.058 21.568 395.914 21.088 390.442 20.608L390.346 13.12ZM513.802 19.264C519.274 19.84 524.458 20.128 530.122 20.128C541.642 20.128 553.45 19.264 563.146 17.248V24.64C552.97 26.368 541.258 27.136 530.026 27.136C524.458 27.136 519.466 26.944 513.898 26.56L513.802 19.264ZM547.402 2.08C547.114 3.99999 546.922 6.016 546.826 7.84C546.634 11.392 546.538 18.208 546.538 23.872C546.538 38.656 547.978 53.632 547.978 63.52C547.978 71.392 544.33 79.072 531.37 79.072C518.506 79.072 511.498 73.888 511.498 65.248C511.498 57.184 518.602 50.848 531.274 50.848C547.402 50.848 558.634 59.008 566.698 66.304L562.57 72.64C552.49 63.232 542.794 56.704 530.602 56.704C523.402 56.704 518.41 59.872 518.41 64.48C518.41 69.472 523.114 72.064 530.122 72.064C538.186 72.064 540.49 68.032 540.49 61.6C540.49 54.688 539.242 36.736 539.242 24.064C539.242 17.44 539.146 11.392 539.146 8.032C539.146 6.304 539.05 3.808 538.762 2.08H547.402ZM500.074 2.752C499.498 4.288 498.73 7.456 498.346 9.184C496.426 18.112 493.546 37.12 493.546 47.872C493.546 52.576 493.834 56.608 494.506 61.312C496.042 56.896 498.442 51.04 500.074 47.104L504.01 50.176C501.61 56.896 498.058 66.688 497.098 71.392C496.81 72.736 496.618 74.656 496.714 75.712C496.81 76.672 496.906 78.112 497.002 79.072L490.186 79.648C488.362 72.736 486.538 62.176 486.538 49.216C486.538 35.104 489.802 16.768 490.954 8.89599C491.338 6.592 491.53 4.096 491.626 1.984L500.074 2.752Z" fill="#B98C76"/>
<path d="M598.544 72.64C598.352 73.3867 598.106 74.1973 597.808 75.072C597.509 75.9467 597.178 76.8107 596.816 77.664C596.474 78.5387 596.133 79.36 595.792 80.128H593.68C593.829 79.5307 593.978 78.8907 594.128 78.208C594.298 77.5253 594.458 76.832 594.608 76.128C594.757 75.4453 594.885 74.7733 594.992 74.112C595.12 73.4507 595.226 72.8427 595.312 72.288H598.32L598.544 72.64ZM594.928 60.576C594.928 59.7653 595.12 59.2 595.504 58.88C595.888 58.56 596.346 58.4 596.88 58.4C597.434 58.4 597.904 58.56 598.288 58.88C598.693 59.2 598.896 59.7653 598.896 60.576C598.896 61.344 598.693 61.8987 598.288 62.24C597.904 62.5813 597.434 62.752 596.88 62.752C596.346 62.752 595.888 62.5813 595.504 62.24C595.12 61.8987 594.928 61.344 594.928 60.576Z" fill="#D3D3D3"/>
</svg>
