<svg width="321" height="92" viewBox="0 0 321 92" fill="none" xmlns="http://www.w3.org/2000/svg">
<path d="M8.88 51.528C10.992 51.528 12.688 52.264 13.968 53.736C15.2693 55.208 15.92 57.4267 15.92 60.392C15.92 62.3333 15.6213 63.976 15.024 65.32C14.448 66.6427 13.6267 67.6453 12.56 68.328C11.5147 68.9893 10.2773 69.32 8.848 69.32C7.97333 69.32 7.19467 69.2027 6.512 68.968C5.82933 68.7333 5.24267 68.4347 4.752 68.072C4.28267 67.688 3.87733 67.272 3.536 66.824H3.344C3.38667 67.1867 3.42933 67.6453 3.472 68.2C3.51467 68.7547 3.536 69.2347 3.536 69.64V76.68H0.72V51.848H3.024L3.408 54.184H3.536C3.87733 53.6933 4.28267 53.2453 4.752 52.84C5.24267 52.4347 5.81867 52.1147 6.48 51.88C7.16267 51.6453 7.96267 51.528 8.88 51.528ZM8.368 53.896C7.216 53.896 6.288 54.12 5.584 54.568C4.88 54.9947 4.368 55.6453 4.048 56.52C3.728 57.3947 3.55733 58.504 3.536 59.848V60.392C3.536 61.8 3.68533 62.9947 3.984 63.976C4.28267 64.9573 4.784 65.704 5.488 66.216C6.21333 66.728 7.19467 66.984 8.432 66.984C9.47733 66.984 10.3307 66.696 10.992 66.12C11.6747 65.544 12.176 64.7653 12.496 63.784C12.8373 62.7813 13.008 61.64 13.008 60.36C13.008 58.3973 12.624 56.8293 11.856 55.656C11.1093 54.4827 9.94667 53.896 8.368 53.896ZM28.4075 51.528C28.7275 51.528 29.0688 51.5493 29.4315 51.592C29.8155 51.6133 30.1462 51.656 30.4235 51.72L30.0715 54.312C29.7942 54.248 29.4848 54.1947 29.1435 54.152C28.8235 54.1093 28.5142 54.088 28.2155 54.088C27.5542 54.088 26.9248 54.2267 26.3275 54.504C25.7302 54.7813 25.1968 55.176 24.7275 55.688C24.2582 56.1787 23.8848 56.776 23.6075 57.48C23.3515 58.184 23.2235 58.9733 23.2235 59.848V69H20.4075V51.848H22.7115L23.0315 54.984H23.1595C23.5222 54.344 23.9595 53.768 24.4715 53.256C24.9835 52.7227 25.5702 52.3067 26.2315 52.008C26.8928 51.688 27.6182 51.528 28.4075 51.528ZM36.4423 51.848V69H33.6263V51.848H36.4423ZM35.0663 45.416C35.4929 45.416 35.8663 45.5653 36.1863 45.864C36.5276 46.1413 36.6983 46.5893 36.6983 47.208C36.6983 47.8053 36.5276 48.2533 36.1863 48.552C35.8663 48.8507 35.4929 49 35.0663 49C34.5969 49 34.2023 48.8507 33.8823 48.552C33.5623 48.2533 33.4023 47.8053 33.4023 47.208C33.4023 46.5893 33.5623 46.1413 33.8823 45.864C34.2023 45.5653 34.5969 45.416 35.0663 45.416ZM50.1323 51.528C52.1803 51.528 53.7269 52.0293 54.7723 53.032C55.8176 54.0133 56.3403 55.6133 56.3403 57.832V69H53.5563V58.024C53.5563 56.6373 53.2469 55.6027 52.6283 54.92C52.0096 54.2373 51.0389 53.896 49.7163 53.896C47.8176 53.896 46.5056 54.4293 45.7803 55.496C45.0549 56.5627 44.6923 58.0987 44.6923 60.104V69H41.8763V51.848H44.1483L44.5643 54.184H44.7243C45.1083 53.5867 45.5776 53.096 46.1323 52.712C46.7083 52.3067 47.3376 52.008 48.0203 51.816C48.7029 51.624 49.4069 51.528 50.1323 51.528ZM67.3855 67.016C67.8122 67.016 68.2495 66.984 68.6975 66.92C69.1455 66.8347 69.5082 66.7493 69.7855 66.664V68.808C69.4868 68.9573 69.0602 69.0747 68.5055 69.16C67.9508 69.2667 67.4175 69.32 66.9055 69.32C66.0095 69.32 65.1775 69.1707 64.4095 68.872C63.6628 68.552 63.0548 68.008 62.5855 67.24C62.1162 66.472 61.8815 65.3947 61.8815 64.008V54.024H59.4495V52.68L61.9135 51.56L63.0335 47.912H64.6975V51.848H69.6575V54.024H64.6975V63.944C64.6975 64.9893 64.9428 65.768 65.4335 66.28C65.9455 66.7707 66.5962 67.016 67.3855 67.016Z" fill="#DADAAA"/>
<path d="M71.78 60.232C71.78 58.4827 71.94 56.776 72.26 55.112C72.6013 53.448 73.124 51.8587 73.828 50.344C74.532 48.8293 75.4173 47.432 76.484 46.152H79.14C78.1587 47.4747 77.3267 48.904 76.644 50.44C75.9827 51.976 75.4813 53.5653 75.14 55.208C74.7987 56.8507 74.628 58.5147 74.628 60.2C74.628 61.8427 74.7987 63.4747 75.14 65.096C75.4813 66.7173 75.9827 68.2747 76.644 69.768C77.3053 71.2827 78.1267 72.712 79.108 74.056H76.484C75.4173 72.7973 74.532 71.4213 73.828 69.928C73.124 68.456 72.6013 66.8987 72.26 65.256C71.94 63.6133 71.78 61.9387 71.78 60.232ZM313.445 60.232C313.445 61.9387 313.274 63.6133 312.933 65.256C312.613 66.8987 312.101 68.456 311.397 69.928C310.714 71.4213 309.829 72.7973 308.741 74.056H306.117C307.098 72.712 307.92 71.2827 308.581 69.768C309.242 68.2747 309.744 66.7173 310.085 65.096C310.426 63.4747 310.597 61.8427 310.597 60.2C310.597 58.5147 310.426 56.8507 310.085 55.208C309.744 53.5653 309.242 51.976 308.581 50.44C307.92 48.904 307.088 47.4747 306.085 46.152H308.741C309.829 47.432 310.714 48.8293 311.397 50.344C312.101 51.8587 312.613 53.448 312.933 55.112C313.274 56.776 313.445 58.4827 313.445 60.232Z" fill="#5C9EFC"/>
<path d="M91.1978 46.152C91.0058 46.9627 90.8031 47.8373 90.5898 48.776C90.3764 49.7147 90.1844 50.632 90.0138 51.528C89.8431 52.424 89.7044 53.2453 89.5978 53.992H86.5578L86.3338 53.64C86.5258 52.8933 86.7711 52.0933 87.0698 51.24C87.3684 50.3653 87.6991 49.4907 88.0618 48.616C88.4244 47.7413 88.7764 46.92 89.1178 46.152H91.1978ZM85.2778 46.152C85.0858 46.9627 84.8831 47.8373 84.6698 48.776C84.4564 49.7147 84.2644 50.632 84.0938 51.528C83.9231 52.424 83.7844 53.2453 83.6778 53.992H80.6698L80.4778 53.64C80.6698 52.8933 80.9151 52.0933 81.2138 51.24C81.5124 50.3653 81.8324 49.4907 82.1738 48.616C82.5364 47.7413 82.8884 46.92 83.2298 46.152H85.2778ZM304.729 46.504C304.537 47.2507 304.292 48.0613 303.993 48.936C303.694 49.8107 303.364 50.6853 303.001 51.56C302.66 52.4133 302.318 53.224 301.977 53.992H299.865C300.078 53.1813 300.281 52.3173 300.473 51.4C300.686 50.4613 300.878 49.544 301.049 48.648C301.241 47.7307 301.39 46.8987 301.497 46.152H304.505L304.729 46.504ZM298.809 46.504C298.617 47.2507 298.372 48.0613 298.073 48.936C297.774 49.8107 297.444 50.6853 297.081 51.56C296.74 52.4133 296.398 53.224 296.057 53.992H294.009C294.158 53.3947 294.308 52.7547 294.457 52.072C294.606 51.3893 294.745 50.7067 294.873 50.024C295.022 49.32 295.15 48.6373 295.257 47.976C295.385 47.3147 295.492 46.7067 295.577 46.152H298.585L298.809 46.504Z" fill="white"/>
<path d="M119.53 69.48C114.41 69.48 110.474 68.904 107.722 67.752C105.034 66.6 103.178 64.808 102.154 62.376C101.13 59.944 100.554 56.808 100.426 52.968L98.5058 0.455996H106.378L108.298 49.896C108.426 53.032 108.714 55.464 109.162 57.192C109.674 58.856 110.762 60.008 112.426 60.648C114.154 61.288 116.842 61.608 120.49 61.608C121.834 61.608 122.794 61.992 123.37 62.76C124.01 63.464 124.33 64.328 124.33 65.352C124.33 66.376 123.882 67.336 122.986 68.232C122.09 69.064 120.938 69.48 119.53 69.48ZM122.715 17.128V11.752L144.219 5.41599V10.888L122.715 17.128ZM122.715 27.208V21.832L144.219 15.496V20.968L122.715 27.208ZM119.531 69.48L120.491 61.608C123.179 61.608 125.291 61.384 126.827 60.936C128.363 60.424 129.515 59.496 130.283 58.152C131.115 56.744 131.819 54.728 132.395 52.104C132.971 49.48 133.675 46.056 134.507 41.832L141.995 43.272C141.739 44.424 141.451 45.704 141.131 47.112C140.811 48.52 140.523 49.928 140.267 51.336C140.075 52.68 139.979 53.864 139.979 54.888C139.979 56.168 140.267 57.32 140.843 58.344C141.419 59.368 142.667 60.168 144.587 60.744C146.507 61.32 149.451 61.608 153.419 61.608C154.763 61.608 155.723 61.992 156.299 62.76C156.939 63.464 157.259 64.328 157.259 65.352C157.259 66.376 156.811 67.336 155.915 68.232C155.019 69.064 153.867 69.48 152.459 69.48C148.299 69.48 145.035 69.128 142.667 68.424C140.299 67.656 138.571 66.536 137.483 65.064C136.395 63.528 135.659 61.672 135.275 59.496L138.155 59.688C137.131 61.736 136.011 63.4 134.795 64.68C133.643 65.96 132.363 66.952 130.955 67.656C129.547 68.36 127.915 68.84 126.059 69.096C124.203 69.352 122.027 69.48 119.531 69.48ZM135.851 87.336C134.507 87.336 133.355 86.856 132.395 85.896C131.499 85 131.051 83.912 131.051 82.632C131.051 81.352 131.499 80.232 132.395 79.272C133.355 78.312 134.507 77.832 135.851 77.832C137.131 77.832 138.219 78.312 139.115 79.272C140.075 80.232 140.555 81.352 140.555 82.632C140.555 83.912 140.075 85 139.115 85.896C138.219 86.856 137.131 87.336 135.851 87.336ZM152.438 69.48L153.302 61.608C156.63 61.608 159.894 61.352 163.094 60.84C166.294 60.328 169.43 59.592 172.502 58.632C175.574 57.672 178.518 56.52 181.334 55.176C184.214 53.768 186.934 52.168 189.494 50.376C187.83 48.904 185.91 47.624 183.734 46.536C181.558 45.448 179.158 44.616 176.534 44.04C173.974 43.4 171.254 43.08 168.374 43.08C167.35 43.08 166.39 43.112 165.494 43.176C164.598 43.24 163.702 43.368 162.806 43.56C161.91 43.688 160.886 43.88 159.734 44.136L158.198 36.84C159.926 36.328 161.654 35.944 163.382 35.688C165.11 35.368 166.774 35.208 168.374 35.208C171.702 35.208 174.71 35.624 177.398 36.456C180.086 37.224 182.518 38.184 184.694 39.336C186.934 40.488 189.014 41.64 190.934 42.792C192.918 43.944 194.838 44.936 196.694 45.768C198.55 46.536 200.47 46.92 202.454 46.92H204.47L205.142 53.832C202.39 53.832 199.862 54.216 197.558 54.984C195.254 55.752 192.982 56.744 190.742 57.96C188.566 59.112 186.262 60.36 183.83 61.704C181.398 62.984 178.71 64.232 175.766 65.448C172.822 66.6 169.43 67.56 165.59 68.328C161.814 69.096 157.43 69.48 152.438 69.48ZM205.509 91.272L202.725 83.976C207.397 82.44 211.269 80.68 214.341 78.696C217.477 76.712 219.941 74.6 221.733 72.36C223.589 70.12 224.901 67.848 225.669 65.544C226.437 63.176 226.821 60.904 226.821 58.728C226.821 55.592 226.117 52.424 224.709 49.224C223.365 45.96 221.861 42.888 220.197 40.008L227.205 36.456C228.421 38.696 229.477 40.904 230.373 43.08C231.333 45.256 232.165 47.304 232.869 49.224C233.637 51.144 234.245 52.904 234.693 54.504C235.589 57.256 236.741 59.144 238.149 60.168C239.621 61.128 241.605 61.608 244.101 61.608C245.445 61.608 246.405 61.992 246.981 62.76C247.621 63.464 247.941 64.328 247.941 65.352C247.941 66.376 247.493 67.336 246.597 68.232C245.701 69.064 244.549 69.48 243.141 69.48C240.325 69.48 238.021 69 236.229 68.04C234.501 67.016 233.189 65.704 232.293 64.104C231.397 62.44 230.789 60.712 230.469 58.92L233.541 60.648C233.541 64.872 232.581 68.712 230.661 72.168C228.805 75.688 226.405 78.728 223.461 81.288C220.517 83.912 217.445 86.056 214.245 87.72C211.045 89.384 208.133 90.568 205.509 91.272ZM243.188 69.48L244.148 61.608C245.94 61.608 247.444 61.224 248.66 60.456C249.876 59.688 251.06 58.408 252.212 56.616C253.364 54.824 254.612 52.424 255.956 49.416C257.812 45.32 259.636 42.216 261.428 40.104C263.284 37.992 265.108 36.552 266.9 35.784C268.756 35.016 270.58 34.632 272.372 34.632C274.548 34.632 276.564 35.208 278.42 36.36C280.276 37.448 281.908 38.92 283.316 40.776C284.724 42.632 285.812 44.68 286.58 46.92C287.412 49.096 287.828 51.272 287.828 53.448C287.828 57.288 287.156 60.36 285.812 62.664C284.468 64.904 282.74 66.536 280.628 67.56C278.58 68.52 276.436 69 274.196 69C272.212 69 269.652 68.616 266.516 67.848C263.444 67.08 259.54 65.128 254.804 61.992L258.548 55.944C261.684 57.928 264.5 59.304 266.996 60.072C269.556 60.776 271.668 61.128 273.332 61.128C275.188 61.128 276.66 60.872 277.748 60.36C278.836 59.784 279.636 58.984 280.148 57.96C280.66 56.936 280.916 55.784 280.916 54.504C280.916 52.648 280.468 50.792 279.572 48.936C278.676 47.08 277.524 45.544 276.116 44.328C274.772 43.112 273.332 42.504 271.796 42.504C270.644 42.504 269.524 42.824 268.436 43.464C267.348 44.104 266.228 45.288 265.076 47.016C263.924 48.744 262.612 51.24 261.14 54.504C259.604 57.96 258.132 60.712 256.724 62.76C255.38 64.744 254.004 66.216 252.596 67.176C251.188 68.136 249.716 68.744 248.18 69C246.708 69.32 245.044 69.48 243.188 69.48Z" fill="#B98C76"/>
<path d="M320.575 65.64C320.383 66.3867 320.137 67.1973 319.839 68.072C319.54 68.9467 319.209 69.8107 318.847 70.664C318.505 71.5387 318.164 72.36 317.823 73.128H315.711C315.86 72.5307 316.009 71.8907 316.159 71.208C316.329 70.5253 316.489 69.832 316.639 69.128C316.788 68.4453 316.916 67.7733 317.023 67.112C317.151 66.4507 317.257 65.8427 317.343 65.288H320.351L320.575 65.64ZM316.959 53.576C316.959 52.7653 317.151 52.2 317.535 51.88C317.919 51.56 318.377 51.4 318.911 51.4C319.465 51.4 319.935 51.56 320.319 51.88C320.724 52.2 320.927 52.7653 320.927 53.576C320.927 54.344 320.724 54.8987 320.319 55.24C319.935 55.5813 319.465 55.752 318.911 55.752C318.377 55.752 317.919 55.5813 317.535 55.24C317.151 54.8987 316.959 54.344 316.959 53.576Z" fill="#D3D3D3"/>
</svg>
