<svg width="658" height="95" viewBox="0 0 658 95" fill="none" xmlns="http://www.w3.org/2000/svg">
<path d="M8.88 53.528C10.992 53.528 12.688 54.264 13.968 55.736C15.2693 57.208 15.92 59.4267 15.92 62.392C15.92 64.3333 15.6213 65.976 15.024 67.32C14.448 68.6427 13.6267 69.6453 12.56 70.328C11.5147 70.9893 10.2773 71.32 8.848 71.32C7.97333 71.32 7.19467 71.2027 6.512 70.968C5.82933 70.7333 5.24267 70.4347 4.752 70.072C4.28267 69.688 3.87733 69.272 3.536 68.824H3.344C3.38667 69.1867 3.42933 69.6453 3.472 70.2C3.51467 70.7547 3.536 71.2347 3.536 71.64V78.68H0.72V53.848H3.024L3.408 56.184H3.536C3.87733 55.6933 4.28267 55.2453 4.752 54.84C5.24267 54.4347 5.81867 54.1147 6.48 53.88C7.16267 53.6453 7.96267 53.528 8.88 53.528ZM8.368 55.896C7.216 55.896 6.288 56.12 5.584 56.568C4.88 56.9947 4.368 57.6453 4.048 58.52C3.728 59.3947 3.55733 60.504 3.536 61.848V62.392C3.536 63.8 3.68533 64.9947 3.984 65.976C4.28267 66.9573 4.784 67.704 5.488 68.216C6.21333 68.728 7.19467 68.984 8.432 68.984C9.47733 68.984 10.3307 68.696 10.992 68.12C11.6747 67.544 12.176 66.7653 12.496 65.784C12.8373 64.7813 13.008 63.64 13.008 62.36C13.008 60.3973 12.624 58.8293 11.856 57.656C11.1093 56.4827 9.94667 55.896 8.368 55.896ZM28.4075 53.528C28.7275 53.528 29.0688 53.5493 29.4315 53.592C29.8155 53.6133 30.1462 53.656 30.4235 53.72L30.0715 56.312C29.7942 56.248 29.4848 56.1947 29.1435 56.152C28.8235 56.1093 28.5142 56.088 28.2155 56.088C27.5542 56.088 26.9248 56.2267 26.3275 56.504C25.7302 56.7813 25.1968 57.176 24.7275 57.688C24.2582 58.1787 23.8848 58.776 23.6075 59.48C23.3515 60.184 23.2235 60.9733 23.2235 61.848V71H20.4075V53.848H22.7115L23.0315 56.984H23.1595C23.5222 56.344 23.9595 55.768 24.4715 55.256C24.9835 54.7227 25.5702 54.3067 26.2315 54.008C26.8928 53.688 27.6182 53.528 28.4075 53.528ZM36.4423 53.848V71H33.6263V53.848H36.4423ZM35.0663 47.416C35.4929 47.416 35.8663 47.5653 36.1863 47.864C36.5276 48.1413 36.6983 48.5893 36.6983 49.208C36.6983 49.8053 36.5276 50.2533 36.1863 50.552C35.8663 50.8507 35.4929 51 35.0663 51C34.5969 51 34.2023 50.8507 33.8823 50.552C33.5623 50.2533 33.4023 49.8053 33.4023 49.208C33.4023 48.5893 33.5623 48.1413 33.8823 47.864C34.2023 47.5653 34.5969 47.416 35.0663 47.416ZM50.1323 53.528C52.1803 53.528 53.7269 54.0293 54.7723 55.032C55.8176 56.0133 56.3403 57.6133 56.3403 59.832V71H53.5563V60.024C53.5563 58.6373 53.2469 57.6027 52.6283 56.92C52.0096 56.2373 51.0389 55.896 49.7163 55.896C47.8176 55.896 46.5056 56.4293 45.7803 57.496C45.0549 58.5627 44.6923 60.0987 44.6923 62.104V71H41.8763V53.848H44.1483L44.5643 56.184H44.7243C45.1083 55.5867 45.5776 55.096 46.1323 54.712C46.7083 54.3067 47.3376 54.008 48.0203 53.816C48.7029 53.624 49.4069 53.528 50.1323 53.528ZM67.3855 69.016C67.8122 69.016 68.2495 68.984 68.6975 68.92C69.1455 68.8347 69.5082 68.7493 69.7855 68.664V70.808C69.4868 70.9573 69.0602 71.0747 68.5055 71.16C67.9508 71.2667 67.4175 71.32 66.9055 71.32C66.0095 71.32 65.1775 71.1707 64.4095 70.872C63.6628 70.552 63.0548 70.008 62.5855 69.24C62.1162 68.472 61.8815 67.3947 61.8815 66.008V56.024H59.4495V54.68L61.9135 53.56L63.0335 49.912H64.6975V53.848H69.6575V56.024H64.6975V65.944C64.6975 66.9893 64.9428 67.768 65.4335 68.28C65.9455 68.7707 66.5962 69.016 67.3855 69.016Z" fill="#DADAAA"/>
<path d="M71.78 62.232C71.78 60.4827 71.94 58.776 72.26 57.112C72.6013 55.448 73.124 53.8587 73.828 52.344C74.532 50.8293 75.4173 49.432 76.484 48.152H79.14C78.1587 49.4747 77.3267 50.904 76.644 52.44C75.9827 53.976 75.4813 55.5653 75.14 57.208C74.7987 58.8507 74.628 60.5147 74.628 62.2C74.628 63.8427 74.7987 65.4747 75.14 67.096C75.4813 68.7173 75.9827 70.2747 76.644 71.768C77.3053 73.2827 78.1267 74.712 79.108 76.056H76.484C75.4173 74.7973 74.532 73.4213 73.828 71.928C73.124 70.456 72.6013 68.8987 72.26 67.256C71.94 65.6133 71.78 63.9387 71.78 62.232ZM649.726 62.232C649.726 63.9387 649.556 65.6133 649.214 67.256C648.894 68.8987 648.382 70.456 647.678 71.928C646.996 73.4213 646.11 74.7973 645.022 76.056H642.398C643.38 74.712 644.201 73.2827 644.862 71.768C645.524 70.2747 646.025 68.7173 646.366 67.096C646.708 65.4747 646.878 63.8427 646.878 62.2C646.878 60.5147 646.708 58.8507 646.366 57.208C646.025 55.5653 645.524 53.976 644.862 52.44C644.201 50.904 643.369 49.4747 642.366 48.152H645.022C646.11 49.432 646.996 50.8293 647.678 52.344C648.382 53.8587 648.894 55.448 649.214 57.112C649.556 58.776 649.726 60.4827 649.726 62.232Z" fill="#5C9EFC"/>
<path d="M91.1978 48.152C91.0058 48.9627 90.8031 49.8373 90.5898 50.776C90.3764 51.7147 90.1844 52.632 90.0138 53.528C89.8431 54.424 89.7044 55.2453 89.5978 55.992H86.5578L86.3338 55.64C86.5258 54.8933 86.7711 54.0933 87.0698 53.24C87.3684 52.3653 87.6991 51.4907 88.0618 50.616C88.4244 49.7413 88.7764 48.92 89.1178 48.152H91.1978ZM85.2778 48.152C85.0858 48.9627 84.8831 49.8373 84.6698 50.776C84.4564 51.7147 84.2644 52.632 84.0938 53.528C83.9231 54.424 83.7844 55.2453 83.6778 55.992H80.6698L80.4778 55.64C80.6698 54.8933 80.9151 54.0933 81.2138 53.24C81.5124 52.3653 81.8324 51.4907 82.1738 50.616C82.5364 49.7413 82.8884 48.92 83.2298 48.152H85.2778ZM641.01 48.504C640.818 49.2507 640.573 50.0613 640.274 50.936C639.976 51.8107 639.645 52.6853 639.282 53.56C638.941 54.4133 638.6 55.224 638.258 55.992H636.146C636.36 55.1813 636.562 54.3173 636.754 53.4C636.968 52.4613 637.16 51.544 637.33 50.648C637.522 49.7307 637.672 48.8987 637.778 48.152H640.786L641.01 48.504ZM635.09 48.504C634.898 49.2507 634.653 50.0613 634.354 50.936C634.056 51.8107 633.725 52.6853 633.362 53.56C633.021 54.4133 632.68 55.224 632.338 55.992H630.29C630.44 55.3947 630.589 54.7547 630.738 54.072C630.888 53.3893 631.026 52.7067 631.154 52.024C631.304 51.32 631.432 50.6373 631.538 49.976C631.666 49.3147 631.773 48.7067 631.858 48.152H634.866L635.09 48.504Z" fill="white"/>
<path d="M120.49 2.456C126.186 2.456 130.954 3 134.794 4.088C138.698 5.176 141.61 6.968 143.53 9.464C145.514 11.96 146.506 15.288 146.506 19.448C146.506 22.136 145.994 24.536 144.97 26.648C144.01 28.696 142.538 30.424 140.554 31.832C138.634 33.176 136.266 34.104 133.45 34.616V35.096C136.33 35.544 138.922 36.376 141.226 37.592C143.594 38.808 145.45 40.536 146.794 42.776C148.138 45.016 148.81 47.928 148.81 51.512C148.81 55.672 147.85 59.224 145.93 62.168C144.01 65.048 141.258 67.256 137.674 68.792C134.154 70.264 129.93 71 125.002 71H100.906V2.456H120.49ZM122.218 31.64C128.106 31.64 132.138 30.712 134.314 28.856C136.49 26.936 137.578 24.12 137.578 20.408C137.578 16.632 136.234 13.944 133.546 12.344C130.922 10.68 126.698 9.848 120.874 9.848H109.546V31.64H122.218ZM109.546 38.84V63.704H123.37C129.45 63.704 133.674 62.52 136.042 60.152C138.41 57.784 139.594 54.68 139.594 50.84C139.594 48.408 139.05 46.296 137.962 44.504C136.938 42.712 135.178 41.336 132.682 40.376C130.25 39.352 126.922 38.84 122.698 38.84H109.546ZM205.199 19.544V71H198.287L197.039 64.184H196.655C195.567 65.976 194.159 67.448 192.431 68.6C190.703 69.752 188.815 70.584 186.767 71.096C184.719 71.672 182.575 71.96 180.335 71.96C176.239 71.96 172.783 71.32 169.967 70.04C167.215 68.696 165.135 66.648 163.727 63.896C162.319 61.144 161.615 57.592 161.615 53.24V19.544H170.159V52.664C170.159 56.76 171.087 59.832 172.943 61.88C174.799 63.928 177.679 64.952 181.583 64.952C185.423 64.952 188.431 64.248 190.607 62.84C192.847 61.368 194.415 59.256 195.311 56.504C196.271 53.688 196.751 50.296 196.751 46.328V19.544H205.199ZM266.271 45.176C266.271 49.464 265.695 53.272 264.543 56.6C263.455 59.864 261.855 62.648 259.743 64.952C257.695 67.256 255.167 69.016 252.159 70.232C249.215 71.384 245.919 71.96 242.271 71.96C238.879 71.96 235.743 71.384 232.863 70.232C229.983 69.016 227.487 67.256 225.375 64.952C223.263 62.648 221.599 59.864 220.383 56.6C219.231 53.272 218.655 49.464 218.655 45.176C218.655 39.48 219.615 34.68 221.535 30.776C223.455 26.808 226.207 23.8 229.791 21.752C233.375 19.64 237.631 18.584 242.559 18.584C247.231 18.584 251.327 19.64 254.847 21.752C258.431 23.8 261.215 26.808 263.199 30.776C265.247 34.68 266.271 39.48 266.271 45.176ZM227.391 45.176C227.391 49.208 227.903 52.728 228.927 55.736C230.015 58.68 231.679 60.952 233.919 62.552C236.159 64.152 239.007 64.952 242.463 64.952C245.919 64.952 248.767 64.152 251.007 62.552C253.247 60.952 254.879 58.68 255.903 55.736C256.991 52.728 257.535 49.208 257.535 45.176C257.535 41.08 256.991 37.592 255.903 34.712C254.815 31.832 253.151 29.624 250.911 28.088C248.735 26.488 245.887 25.688 242.367 25.688C237.119 25.688 233.311 27.416 230.943 30.872C228.575 34.328 227.391 39.096 227.391 45.176ZM304.428 18.584C310.572 18.584 315.212 20.088 318.348 23.096C321.484 26.04 323.052 30.84 323.052 37.496V71H314.7V38.072C314.7 33.912 313.772 30.808 311.916 28.76C310.06 26.712 307.148 25.688 303.18 25.688C297.484 25.688 293.548 27.288 291.372 30.488C289.196 33.688 288.108 38.296 288.108 44.312V71H279.66V19.544H286.476L287.724 26.552H288.204C289.356 24.76 290.764 23.288 292.428 22.136C294.156 20.92 296.044 20.024 298.092 19.448C300.14 18.872 302.252 18.584 304.428 18.584ZM357.244 18.584C360.636 18.584 363.676 19.224 366.364 20.504C369.116 21.784 371.452 23.736 373.372 26.36H373.852L375.004 19.544H381.724V71.864C381.724 76.728 380.892 80.792 379.228 84.056C377.564 87.384 375.036 89.88 371.644 91.544C368.252 93.208 363.932 94.04 358.684 94.04C354.972 94.04 351.548 93.752 348.412 93.176C345.34 92.664 342.588 91.864 340.156 90.776V83C341.82 83.832 343.644 84.536 345.628 85.112C347.612 85.752 349.756 86.232 352.06 86.552C354.364 86.872 356.732 87.032 359.164 87.032C363.58 87.032 367.036 85.72 369.532 83.096C372.092 80.536 373.372 77.016 373.372 72.536V70.52C373.372 69.752 373.404 68.664 373.468 67.256C373.532 65.784 373.596 64.76 373.66 64.184H373.276C371.484 66.808 369.244 68.76 366.556 70.04C363.932 71.32 360.86 71.96 357.34 71.96C350.684 71.96 345.468 69.624 341.692 64.952C337.98 60.28 336.124 53.752 336.124 45.368C336.124 39.864 336.956 35.128 338.62 31.16C340.348 27.128 342.78 24.024 345.916 21.848C349.052 19.672 352.828 18.584 357.244 18.584ZM358.396 25.688C355.516 25.688 353.052 26.456 351.004 27.992C349.02 29.528 347.484 31.768 346.396 34.712C345.372 37.656 344.86 41.24 344.86 45.464C344.86 51.8 346.012 56.664 348.316 60.056C350.684 63.384 354.108 65.048 358.588 65.048C361.212 65.048 363.452 64.728 365.308 64.088C367.164 63.384 368.7 62.328 369.916 60.92C371.132 59.448 372.028 57.592 372.604 55.352C373.18 53.112 373.468 50.456 373.468 47.384V45.368C373.468 40.696 372.924 36.92 371.836 34.04C370.812 31.16 369.18 29.048 366.94 27.704C364.7 26.36 361.852 25.688 358.396 25.688ZM406.514 19.544V71H398.066V19.544H406.514ZM402.386 0.247995C403.666 0.247995 404.786 0.695995 405.746 1.592C406.77 2.424 407.282 3.768 407.282 5.62399C407.282 7.41599 406.77 8.75999 405.746 9.65599C404.786 10.552 403.666 11 402.386 11C400.978 11 399.794 10.552 398.834 9.65599C397.874 8.75999 397.394 7.41599 397.394 5.62399C397.394 3.768 397.874 2.424 398.834 1.592C399.794 0.695995 400.978 0.247995 402.386 0.247995ZM467.552 45.176C467.552 49.464 466.976 53.272 465.824 56.6C464.736 59.864 463.136 62.648 461.024 64.952C458.976 67.256 456.448 69.016 453.44 70.232C450.496 71.384 447.2 71.96 443.552 71.96C440.16 71.96 437.024 71.384 434.144 70.232C431.264 69.016 428.768 67.256 426.656 64.952C424.544 62.648 422.88 59.864 421.664 56.6C420.512 53.272 419.936 49.464 419.936 45.176C419.936 39.48 420.896 34.68 422.816 30.776C424.736 26.808 427.488 23.8 431.072 21.752C434.656 19.64 438.912 18.584 443.84 18.584C448.512 18.584 452.608 19.64 456.128 21.752C459.712 23.8 462.496 26.808 464.48 30.776C466.528 34.68 467.552 39.48 467.552 45.176ZM428.672 45.176C428.672 49.208 429.184 52.728 430.208 55.736C431.296 58.68 432.96 60.952 435.2 62.552C437.44 64.152 440.288 64.952 443.744 64.952C447.2 64.952 450.048 64.152 452.288 62.552C454.528 60.952 456.16 58.68 457.184 55.736C458.272 52.728 458.816 49.208 458.816 45.176C458.816 41.08 458.272 37.592 457.184 34.712C456.096 31.832 454.432 29.624 452.192 28.088C450.016 26.488 447.168 25.688 443.648 25.688C438.4 25.688 434.592 27.416 432.224 30.872C429.856 34.328 428.672 39.096 428.672 45.176ZM504.941 18.584C505.901 18.584 506.925 18.648 508.013 18.776C509.165 18.84 510.157 18.968 510.989 19.16L509.933 26.936C509.101 26.744 508.173 26.584 507.149 26.456C506.189 26.328 505.261 26.264 504.365 26.264C502.381 26.264 500.493 26.68 498.701 27.512C496.909 28.344 495.309 29.528 493.901 31.064C492.493 32.536 491.373 34.328 490.541 36.44C489.773 38.552 489.389 40.92 489.389 43.544V71H480.941V19.544H487.853L488.813 28.952H489.197C490.285 27.032 491.597 25.304 493.133 23.768C494.669 22.168 496.429 20.92 498.413 20.024C500.397 19.064 502.573 18.584 504.941 18.584ZM545.366 18.584C551.51 18.584 556.15 20.088 559.286 23.096C562.422 26.04 563.99 30.84 563.99 37.496V71H555.638V38.072C555.638 33.912 554.71 30.808 552.854 28.76C550.998 26.712 548.086 25.688 544.118 25.688C538.422 25.688 534.486 27.288 532.31 30.488C530.134 33.688 529.046 38.296 529.046 44.312V71H520.598V19.544H527.414L528.662 26.552H529.142C530.294 24.76 531.702 23.288 533.366 22.136C535.094 20.92 536.982 20.024 539.03 19.448C541.078 18.872 543.19 18.584 545.366 18.584ZM624.677 45.176C624.677 49.464 624.101 53.272 622.949 56.6C621.861 59.864 620.261 62.648 618.149 64.952C616.101 67.256 613.573 69.016 610.565 70.232C607.621 71.384 604.325 71.96 600.677 71.96C597.285 71.96 594.149 71.384 591.269 70.232C588.389 69.016 585.893 67.256 583.781 64.952C581.669 62.648 580.005 59.864 578.789 56.6C577.637 53.272 577.061 49.464 577.061 45.176C577.061 39.48 578.021 34.68 579.941 30.776C581.861 26.808 584.613 23.8 588.197 21.752C591.781 19.64 596.037 18.584 600.965 18.584C605.637 18.584 609.733 19.64 613.253 21.752C616.837 23.8 619.621 26.808 621.605 30.776C623.653 34.68 624.677 39.48 624.677 45.176ZM585.797 45.176C585.797 49.208 586.309 52.728 587.333 55.736C588.421 58.68 590.085 60.952 592.325 62.552C594.565 64.152 597.413 64.952 600.869 64.952C604.325 64.952 607.173 64.152 609.413 62.552C611.653 60.952 613.285 58.68 614.309 55.736C615.397 52.728 615.941 49.208 615.941 45.176C615.941 41.08 615.397 37.592 614.309 34.712C613.221 31.832 611.557 29.624 609.317 28.088C607.141 26.488 604.293 25.688 600.773 25.688C595.525 25.688 591.717 27.416 589.349 30.872C586.981 34.328 585.797 39.096 585.797 45.176Z" fill="#B98C76"/>
<path d="M656.856 67.64C656.664 68.3867 656.419 69.1973 656.12 70.072C655.821 70.9467 655.491 71.8107 655.128 72.664C654.787 73.5387 654.445 74.36 654.104 75.128H651.992C652.141 74.5307 652.291 73.8907 652.44 73.208C652.611 72.5253 652.771 71.832 652.92 71.128C653.069 70.4453 653.197 69.7733 653.304 69.112C653.432 68.4507 653.539 67.8427 653.624 67.288H656.632L656.856 67.64ZM653.24 55.576C653.24 54.7653 653.432 54.2 653.816 53.88C654.2 53.56 654.659 53.4 655.192 53.4C655.747 53.4 656.216 53.56 656.6 53.88C657.005 54.2 657.208 54.7653 657.208 55.576C657.208 56.344 657.005 56.8987 656.6 57.24C656.216 57.5813 655.747 57.752 655.192 57.752C654.659 57.752 654.2 57.5813 653.816 57.24C653.432 56.8987 653.24 56.344 653.24 55.576Z" fill="#D3D3D3"/>
</svg>
