<svg width="481" height="95" viewBox="0 0 481 95" fill="none" xmlns="http://www.w3.org/2000/svg">
<path d="M8.88 53.528C10.992 53.528 12.688 54.264 13.968 55.736C15.2693 57.208 15.92 59.4267 15.92 62.392C15.92 64.3333 15.6213 65.976 15.024 67.32C14.448 68.6427 13.6267 69.6453 12.56 70.328C11.5147 70.9893 10.2773 71.32 8.848 71.32C7.97333 71.32 7.19467 71.2027 6.512 70.968C5.82933 70.7333 5.24267 70.4347 4.752 70.072C4.28267 69.688 3.87733 69.272 3.536 68.824H3.344C3.38667 69.1867 3.42933 69.6453 3.472 70.2C3.51467 70.7547 3.536 71.2347 3.536 71.64V78.68H0.72V53.848H3.024L3.408 56.184H3.536C3.87733 55.6933 4.28267 55.2453 4.752 54.84C5.24267 54.4347 5.81867 54.1147 6.48 53.88C7.16267 53.6453 7.96267 53.528 8.88 53.528ZM8.368 55.896C7.216 55.896 6.288 56.12 5.584 56.568C4.88 56.9947 4.368 57.6453 4.048 58.52C3.728 59.3947 3.55733 60.504 3.536 61.848V62.392C3.536 63.8 3.68533 64.9947 3.984 65.976C4.28267 66.9573 4.784 67.704 5.488 68.216C6.21333 68.728 7.19467 68.984 8.432 68.984C9.47733 68.984 10.3307 68.696 10.992 68.12C11.6747 67.544 12.176 66.7653 12.496 65.784C12.8373 64.7813 13.008 63.64 13.008 62.36C13.008 60.3973 12.624 58.8293 11.856 57.656C11.1093 56.4827 9.94667 55.896 8.368 55.896ZM28.4075 53.528C28.7275 53.528 29.0688 53.5493 29.4315 53.592C29.8155 53.6133 30.1462 53.656 30.4235 53.72L30.0715 56.312C29.7942 56.248 29.4848 56.1947 29.1435 56.152C28.8235 56.1093 28.5142 56.088 28.2155 56.088C27.5542 56.088 26.9248 56.2267 26.3275 56.504C25.7302 56.7813 25.1968 57.176 24.7275 57.688C24.2582 58.1787 23.8848 58.776 23.6075 59.48C23.3515 60.184 23.2235 60.9733 23.2235 61.848V71H20.4075V53.848H22.7115L23.0315 56.984H23.1595C23.5222 56.344 23.9595 55.768 24.4715 55.256C24.9835 54.7227 25.5702 54.3067 26.2315 54.008C26.8928 53.688 27.6182 53.528 28.4075 53.528ZM36.4423 53.848V71H33.6263V53.848H36.4423ZM35.0663 47.416C35.4929 47.416 35.8663 47.5653 36.1863 47.864C36.5276 48.1413 36.6983 48.5893 36.6983 49.208C36.6983 49.8053 36.5276 50.2533 36.1863 50.552C35.8663 50.8507 35.4929 51 35.0663 51C34.5969 51 34.2023 50.8507 33.8823 50.552C33.5623 50.2533 33.4023 49.8053 33.4023 49.208C33.4023 48.5893 33.5623 48.1413 33.8823 47.864C34.2023 47.5653 34.5969 47.416 35.0663 47.416ZM50.1323 53.528C52.1803 53.528 53.7269 54.0293 54.7723 55.032C55.8176 56.0133 56.3403 57.6133 56.3403 59.832V71H53.5563V60.024C53.5563 58.6373 53.2469 57.6027 52.6283 56.92C52.0096 56.2373 51.0389 55.896 49.7163 55.896C47.8176 55.896 46.5056 56.4293 45.7803 57.496C45.0549 58.5627 44.6923 60.0987 44.6923 62.104V71H41.8763V53.848H44.1483L44.5643 56.184H44.7243C45.1083 55.5867 45.5776 55.096 46.1323 54.712C46.7083 54.3067 47.3376 54.008 48.0203 53.816C48.7029 53.624 49.4069 53.528 50.1323 53.528ZM67.3855 69.016C67.8122 69.016 68.2495 68.984 68.6975 68.92C69.1455 68.8347 69.5082 68.7493 69.7855 68.664V70.808C69.4868 70.9573 69.0602 71.0747 68.5055 71.16C67.9508 71.2667 67.4175 71.32 66.9055 71.32C66.0095 71.32 65.1775 71.1707 64.4095 70.872C63.6628 70.552 63.0548 70.008 62.5855 69.24C62.1162 68.472 61.8815 67.3947 61.8815 66.008V56.024H59.4495V54.68L61.9135 53.56L63.0335 49.912H64.6975V53.848H69.6575V56.024H64.6975V65.944C64.6975 66.9893 64.9428 67.768 65.4335 68.28C65.9455 68.7707 66.5962 69.016 67.3855 69.016Z" fill="#DADAAA"/>
<path d="M71.78 62.232C71.78 60.4827 71.94 58.776 72.26 57.112C72.6013 55.448 73.124 53.8587 73.828 52.344C74.532 50.8293 75.4173 49.432 76.484 48.152H79.14C78.1587 49.4747 77.3267 50.904 76.644 52.44C75.9827 53.976 75.4813 55.5653 75.14 57.208C74.7987 58.8507 74.628 60.5147 74.628 62.2C74.628 63.8427 74.7987 65.4747 75.14 67.096C75.4813 68.7173 75.9827 70.2747 76.644 71.768C77.3053 73.2827 78.1267 74.712 79.108 76.056H76.484C75.4173 74.7973 74.532 73.4213 73.828 71.928C73.124 70.456 72.6013 68.8987 72.26 67.256C71.94 65.6133 71.78 63.9387 71.78 62.232ZM473.195 62.232C473.195 63.9387 473.024 65.6133 472.683 67.256C472.363 68.8987 471.851 70.456 471.147 71.928C470.464 73.4213 469.579 74.7973 468.491 76.056H465.867C466.848 74.712 467.67 73.2827 468.331 71.768C468.992 70.2747 469.494 68.7173 469.835 67.096C470.176 65.4747 470.347 63.8427 470.347 62.2C470.347 60.5147 470.176 58.8507 469.835 57.208C469.494 55.5653 468.992 53.976 468.331 52.44C467.67 50.904 466.838 49.4747 465.835 48.152H468.491C469.579 49.432 470.464 50.8293 471.147 52.344C471.851 53.8587 472.363 55.448 472.683 57.112C473.024 58.776 473.195 60.4827 473.195 62.232Z" fill="#5C9EFC"/>
<path d="M91.1978 48.152C91.0058 48.9627 90.8031 49.8373 90.5898 50.776C90.3764 51.7147 90.1844 52.632 90.0138 53.528C89.8431 54.424 89.7044 55.2453 89.5978 55.992H86.5578L86.3338 55.64C86.5258 54.8933 86.7711 54.0933 87.0698 53.24C87.3684 52.3653 87.6991 51.4907 88.0618 50.616C88.4244 49.7413 88.7764 48.92 89.1178 48.152H91.1978ZM85.2778 48.152C85.0858 48.9627 84.8831 49.8373 84.6698 50.776C84.4564 51.7147 84.2644 52.632 84.0938 53.528C83.9231 54.424 83.7844 55.2453 83.6778 55.992H80.6698L80.4778 55.64C80.6698 54.8933 80.9151 54.0933 81.2138 53.24C81.5124 52.3653 81.8324 51.4907 82.1738 50.616C82.5364 49.7413 82.8884 48.92 83.2298 48.152H85.2778ZM464.479 48.504C464.287 49.2507 464.042 50.0613 463.743 50.936C463.444 51.8107 463.114 52.6853 462.751 53.56C462.41 54.4133 462.068 55.224 461.727 55.992H459.615C459.828 55.1813 460.031 54.3173 460.223 53.4C460.436 52.4613 460.628 51.544 460.799 50.648C460.991 49.7307 461.14 48.8987 461.247 48.152H464.255L464.479 48.504ZM458.559 48.504C458.367 49.2507 458.122 50.0613 457.823 50.936C457.524 51.8107 457.194 52.6853 456.831 53.56C456.49 54.4133 456.148 55.224 455.807 55.992H453.759C453.908 55.3947 454.058 54.7547 454.207 54.072C454.356 53.3893 454.495 52.7067 454.623 52.024C454.772 51.32 454.9 50.6373 455.007 49.976C455.135 49.3147 455.242 48.7067 455.327 48.152H458.335L458.559 48.504Z" fill="white"/>
<path d="M120.49 2.456C126.186 2.456 130.954 3 134.794 4.088C138.698 5.176 141.61 6.968 143.53 9.464C145.514 11.96 146.506 15.288 146.506 19.448C146.506 22.136 145.994 24.536 144.97 26.648C144.01 28.696 142.538 30.424 140.554 31.832C138.634 33.176 136.266 34.104 133.45 34.616V35.096C136.33 35.544 138.922 36.376 141.226 37.592C143.594 38.808 145.45 40.536 146.794 42.776C148.138 45.016 148.81 47.928 148.81 51.512C148.81 55.672 147.85 59.224 145.93 62.168C144.01 65.048 141.258 67.256 137.674 68.792C134.154 70.264 129.93 71 125.002 71H100.906V2.456H120.49ZM122.218 31.64C128.106 31.64 132.138 30.712 134.314 28.856C136.49 26.936 137.578 24.12 137.578 20.408C137.578 16.632 136.234 13.944 133.546 12.344C130.922 10.68 126.698 9.848 120.874 9.848H109.546V31.64H122.218ZM109.546 38.84V63.704H123.37C129.45 63.704 133.674 62.52 136.042 60.152C138.41 57.784 139.594 54.68 139.594 50.84C139.594 48.408 139.05 46.296 137.962 44.504C136.938 42.712 135.178 41.336 132.682 40.376C130.25 39.352 126.922 38.84 122.698 38.84H109.546ZM206.927 45.176C206.927 49.464 206.351 53.272 205.199 56.6C204.111 59.864 202.511 62.648 200.399 64.952C198.351 67.256 195.823 69.016 192.815 70.232C189.871 71.384 186.575 71.96 182.927 71.96C179.535 71.96 176.399 71.384 173.519 70.232C170.639 69.016 168.143 67.256 166.031 64.952C163.919 62.648 162.255 59.864 161.039 56.6C159.887 53.272 159.311 49.464 159.311 45.176C159.311 39.48 160.271 34.68 162.191 30.776C164.111 26.808 166.863 23.8 170.447 21.752C174.031 19.64 178.287 18.584 183.215 18.584C187.887 18.584 191.983 19.64 195.503 21.752C199.087 23.8 201.871 26.808 203.855 30.776C205.903 34.68 206.927 39.48 206.927 45.176ZM168.047 45.176C168.047 49.208 168.559 52.728 169.583 55.736C170.671 58.68 172.335 60.952 174.575 62.552C176.815 64.152 179.663 64.952 183.119 64.952C186.575 64.952 189.423 64.152 191.663 62.552C193.903 60.952 195.535 58.68 196.559 55.736C197.647 52.728 198.191 49.208 198.191 45.176C198.191 41.08 197.647 37.592 196.559 34.712C195.471 31.832 193.807 29.624 191.567 28.088C189.391 26.488 186.543 25.688 183.023 25.688C177.775 25.688 173.967 27.416 171.599 30.872C169.231 34.328 168.047 39.096 168.047 45.176ZM245.084 18.584C251.228 18.584 255.868 20.088 259.004 23.096C262.14 26.04 263.708 30.84 263.708 37.496V71H255.356V38.072C255.356 33.912 254.428 30.808 252.572 28.76C250.716 26.712 247.804 25.688 243.836 25.688C238.14 25.688 234.204 27.288 232.028 30.488C229.852 33.688 228.764 38.296 228.764 44.312V71H220.316V19.544H227.132L228.38 26.552H228.86C230.012 24.76 231.42 23.288 233.084 22.136C234.812 20.92 236.7 20.024 238.748 19.448C240.796 18.872 242.908 18.584 245.084 18.584ZM273.612 94.04C272.012 94.04 270.604 93.912 269.388 93.656C268.172 93.464 267.116 93.208 266.22 92.888V86.072C267.18 86.328 268.172 86.552 269.196 86.744C270.22 86.936 271.34 87.032 272.556 87.032C274.604 87.032 276.3 86.456 277.644 85.304C278.988 84.216 279.66 82.104 279.66 78.968V19.544H288.108V78.68C288.108 81.88 287.596 84.632 286.572 86.936C285.548 89.24 283.98 91 281.868 92.216C279.756 93.432 277.004 94.04 273.612 94.04ZM278.988 5.62399C278.988 3.768 279.468 2.424 280.428 1.592C281.388 0.695995 282.572 0.247995 283.98 0.247995C285.26 0.247995 286.38 0.695995 287.34 1.592C288.364 2.424 288.876 3.768 288.876 5.62399C288.876 7.41599 288.364 8.75999 287.34 9.65599C286.38 10.552 285.26 11 283.98 11C282.572 11 281.388 10.552 280.428 9.65599C279.468 8.75999 278.988 7.41599 278.988 5.62399ZM347.418 19.544V71H340.506L339.258 64.184H338.874C337.786 65.976 336.378 67.448 334.65 68.6C332.922 69.752 331.034 70.584 328.986 71.096C326.938 71.672 324.794 71.96 322.554 71.96C318.458 71.96 315.002 71.32 312.186 70.04C309.434 68.696 307.354 66.648 305.946 63.896C304.538 61.144 303.834 57.592 303.834 53.24V19.544H312.378V52.664C312.378 56.76 313.306 59.832 315.162 61.88C317.018 63.928 319.898 64.952 323.802 64.952C327.642 64.952 330.65 64.248 332.826 62.84C335.066 61.368 336.634 59.256 337.53 56.504C338.49 53.688 338.97 50.296 338.97 46.328V19.544H347.418ZM408.49 45.176C408.49 49.464 407.914 53.272 406.762 56.6C405.674 59.864 404.074 62.648 401.962 64.952C399.914 67.256 397.386 69.016 394.378 70.232C391.434 71.384 388.138 71.96 384.49 71.96C381.098 71.96 377.962 71.384 375.082 70.232C372.202 69.016 369.706 67.256 367.594 64.952C365.482 62.648 363.818 59.864 362.602 56.6C361.45 53.272 360.874 49.464 360.874 45.176C360.874 39.48 361.834 34.68 363.754 30.776C365.674 26.808 368.426 23.8 372.01 21.752C375.594 19.64 379.85 18.584 384.778 18.584C389.45 18.584 393.546 19.64 397.066 21.752C400.65 23.8 403.434 26.808 405.418 30.776C407.466 34.68 408.49 39.48 408.49 45.176ZM369.61 45.176C369.61 49.208 370.122 52.728 371.146 55.736C372.234 58.68 373.898 60.952 376.138 62.552C378.378 64.152 381.226 64.952 384.682 64.952C388.138 64.952 390.986 64.152 393.226 62.552C395.466 60.952 397.098 58.68 398.122 55.736C399.21 52.728 399.754 49.208 399.754 45.176C399.754 41.08 399.21 37.592 398.122 34.712C397.034 31.832 395.37 29.624 393.13 28.088C390.954 26.488 388.106 25.688 384.586 25.688C379.338 25.688 375.53 27.416 373.162 30.872C370.794 34.328 369.61 39.096 369.61 45.176ZM445.879 18.584C446.839 18.584 447.863 18.648 448.951 18.776C450.103 18.84 451.095 18.968 451.927 19.16L450.871 26.936C450.039 26.744 449.111 26.584 448.087 26.456C447.127 26.328 446.199 26.264 445.303 26.264C443.319 26.264 441.431 26.68 439.639 27.512C437.847 28.344 436.247 29.528 434.839 31.064C433.431 32.536 432.311 34.328 431.479 36.44C430.711 38.552 430.327 40.92 430.327 43.544V71H421.879V19.544H428.791L429.751 28.952H430.135C431.223 27.032 432.535 25.304 434.071 23.768C435.607 22.168 437.367 20.92 439.351 20.024C441.335 19.064 443.511 18.584 445.879 18.584Z" fill="#B98C76"/>
<path d="M480.325 67.64C480.133 68.3867 479.887 69.1973 479.589 70.072C479.29 70.9467 478.959 71.8107 478.597 72.664C478.255 73.5387 477.914 74.36 477.573 75.128H475.461C475.61 74.5307 475.759 73.8907 475.909 73.208C476.079 72.5253 476.239 71.832 476.389 71.128C476.538 70.4453 476.666 69.7733 476.773 69.112C476.901 68.4507 477.007 67.8427 477.093 67.288H480.101L480.325 67.64ZM476.709 55.576C476.709 54.7653 476.901 54.2 477.285 53.88C477.669 53.56 478.127 53.4 478.661 53.4C479.215 53.4 479.685 53.56 480.069 53.88C480.474 54.2 480.677 54.7653 480.677 55.576C480.677 56.344 480.474 56.8987 480.069 57.24C479.685 57.5813 479.215 57.752 478.661 57.752C478.127 57.752 477.669 57.5813 477.285 57.24C476.901 56.8987 476.709 56.344 476.709 55.576Z" fill="#D3D3D3"/>
</svg>
