<svg width="352" height="81" viewBox="0 0 352 81" fill="none" xmlns="http://www.w3.org/2000/svg">
<path d="M8.88 55.528C10.992 55.528 12.688 56.264 13.968 57.736C15.2693 59.208 15.92 61.4267 15.92 64.392C15.92 66.3333 15.6213 67.976 15.024 69.32C14.448 70.6427 13.6267 71.6453 12.56 72.328C11.5147 72.9893 10.2773 73.32 8.848 73.32C7.97333 73.32 7.19467 73.2027 6.512 72.968C5.82933 72.7333 5.24267 72.4347 4.752 72.072C4.28267 71.688 3.87733 71.272 3.536 70.824H3.344C3.38667 71.1867 3.42933 71.6453 3.472 72.2C3.51467 72.7547 3.536 73.2347 3.536 73.64V80.68H0.72V55.848H3.024L3.408 58.184H3.536C3.87733 57.6933 4.28267 57.2453 4.752 56.84C5.24267 56.4347 5.81867 56.1147 6.48 55.88C7.16267 55.6453 7.96267 55.528 8.88 55.528ZM8.368 57.896C7.216 57.896 6.288 58.12 5.584 58.568C4.88 58.9947 4.368 59.6453 4.048 60.52C3.728 61.3947 3.55733 62.504 3.536 63.848V64.392C3.536 65.8 3.68533 66.9947 3.984 67.976C4.28267 68.9573 4.784 69.704 5.488 70.216C6.21333 70.728 7.19467 70.984 8.432 70.984C9.47733 70.984 10.3307 70.696 10.992 70.12C11.6747 69.544 12.176 68.7653 12.496 67.784C12.8373 66.7813 13.008 65.64 13.008 64.36C13.008 62.3973 12.624 60.8293 11.856 59.656C11.1093 58.4827 9.94667 57.896 8.368 57.896ZM28.4075 55.528C28.7275 55.528 29.0688 55.5493 29.4315 55.592C29.8155 55.6133 30.1462 55.656 30.4235 55.72L30.0715 58.312C29.7942 58.248 29.4848 58.1947 29.1435 58.152C28.8235 58.1093 28.5142 58.088 28.2155 58.088C27.5542 58.088 26.9248 58.2267 26.3275 58.504C25.7302 58.7813 25.1968 59.176 24.7275 59.688C24.2582 60.1787 23.8848 60.776 23.6075 61.48C23.3515 62.184 23.2235 62.9733 23.2235 63.848V73H20.4075V55.848H22.7115L23.0315 58.984H23.1595C23.5222 58.344 23.9595 57.768 24.4715 57.256C24.9835 56.7227 25.5702 56.3067 26.2315 56.008C26.8928 55.688 27.6182 55.528 28.4075 55.528ZM36.4423 55.848V73H33.6263V55.848H36.4423ZM35.0663 49.416C35.4929 49.416 35.8663 49.5653 36.1863 49.864C36.5276 50.1413 36.6983 50.5893 36.6983 51.208C36.6983 51.8053 36.5276 52.2533 36.1863 52.552C35.8663 52.8507 35.4929 53 35.0663 53C34.5969 53 34.2023 52.8507 33.8823 52.552C33.5623 52.2533 33.4023 51.8053 33.4023 51.208C33.4023 50.5893 33.5623 50.1413 33.8823 49.864C34.2023 49.5653 34.5969 49.416 35.0663 49.416ZM50.1323 55.528C52.1803 55.528 53.7269 56.0293 54.7723 57.032C55.8176 58.0133 56.3403 59.6133 56.3403 61.832V73H53.5563V62.024C53.5563 60.6373 53.2469 59.6027 52.6283 58.92C52.0096 58.2373 51.0389 57.896 49.7163 57.896C47.8176 57.896 46.5056 58.4293 45.7803 59.496C45.0549 60.5627 44.6923 62.0987 44.6923 64.104V73H41.8763V55.848H44.1483L44.5643 58.184H44.7243C45.1083 57.5867 45.5776 57.096 46.1323 56.712C46.7083 56.3067 47.3376 56.008 48.0203 55.816C48.7029 55.624 49.4069 55.528 50.1323 55.528ZM67.3855 71.016C67.8122 71.016 68.2495 70.984 68.6975 70.92C69.1455 70.8347 69.5082 70.7493 69.7855 70.664V72.808C69.4868 72.9573 69.0602 73.0747 68.5055 73.16C67.9508 73.2667 67.4175 73.32 66.9055 73.32C66.0095 73.32 65.1775 73.1707 64.4095 72.872C63.6628 72.552 63.0548 72.008 62.5855 71.24C62.1162 70.472 61.8815 69.3947 61.8815 68.008V58.024H59.4495V56.68L61.9135 55.56L63.0335 51.912H64.6975V55.848H69.6575V58.024H64.6975V67.944C64.6975 68.9893 64.9428 69.768 65.4335 70.28C65.9455 70.7707 66.5962 71.016 67.3855 71.016Z" fill="#DADAAA"/>
<path d="M71.78 64.232C71.78 62.4827 71.94 60.776 72.26 59.112C72.6013 57.448 73.124 55.8587 73.828 54.344C74.532 52.8293 75.4173 51.432 76.484 50.152H79.14C78.1587 51.4747 77.3267 52.904 76.644 54.44C75.9827 55.976 75.4813 57.5653 75.14 59.208C74.7987 60.8507 74.628 62.5147 74.628 64.2C74.628 65.8427 74.7987 67.4747 75.14 69.096C75.4813 70.7173 75.9827 72.2747 76.644 73.768C77.3053 75.2827 78.1267 76.712 79.108 78.056H76.484C75.4173 76.7973 74.532 75.4213 73.828 73.928C73.124 72.456 72.6013 70.8987 72.26 69.256C71.94 67.6133 71.78 65.9387 71.78 64.232ZM344.383 64.232C344.383 65.9387 344.212 67.6133 343.871 69.256C343.551 70.8987 343.039 72.456 342.335 73.928C341.652 75.4213 340.767 76.7973 339.679 78.056H337.055C338.036 76.712 338.857 75.2827 339.519 73.768C340.18 72.2747 340.681 70.7173 341.023 69.096C341.364 67.4747 341.535 65.8427 341.535 64.2C341.535 62.5147 341.364 60.8507 341.023 59.208C340.681 57.5653 340.18 55.976 339.519 54.44C338.857 52.904 338.025 51.4747 337.023 50.152H339.679C340.767 51.432 341.652 52.8293 342.335 54.344C343.039 55.8587 343.551 57.448 343.871 59.112C344.212 60.776 344.383 62.4827 344.383 64.232Z" fill="#5C9EFC"/>
<path d="M91.1978 50.152C91.0058 50.9627 90.8031 51.8373 90.5898 52.776C90.3764 53.7147 90.1844 54.632 90.0138 55.528C89.8431 56.424 89.7044 57.2453 89.5978 57.992H86.5578L86.3338 57.64C86.5258 56.8933 86.7711 56.0933 87.0698 55.24C87.3684 54.3653 87.6991 53.4907 88.0618 52.616C88.4244 51.7413 88.7764 50.92 89.1178 50.152H91.1978ZM85.2778 50.152C85.0858 50.9627 84.8831 51.8373 84.6698 52.776C84.4564 53.7147 84.2644 54.632 84.0938 55.528C83.9231 56.424 83.7844 57.2453 83.6778 57.992H80.6698L80.4778 57.64C80.6698 56.8933 80.9151 56.0933 81.2138 55.24C81.5124 54.3653 81.8324 53.4907 82.1738 52.616C82.5364 51.7413 82.8884 50.92 83.2298 50.152H85.2778ZM335.667 50.504C335.475 51.2507 335.229 52.0613 334.931 52.936C334.632 53.8107 334.301 54.6853 333.939 55.56C333.597 56.4133 333.256 57.224 332.915 57.992H330.803C331.016 57.1813 331.219 56.3173 331.411 55.4C331.624 54.4613 331.816 53.544 331.987 52.648C332.179 51.7307 332.328 50.8987 332.435 50.152H335.443L335.667 50.504ZM329.747 50.504C329.555 51.2507 329.309 52.0613 329.011 52.936C328.712 53.8107 328.381 54.6853 328.019 55.56C327.677 56.4133 327.336 57.224 326.995 57.992H324.947C325.096 57.3947 325.245 56.7547 325.395 56.072C325.544 55.3893 325.683 54.7067 325.811 54.024C325.96 53.32 326.088 52.6373 326.195 51.976C326.323 51.3147 326.429 50.7067 326.515 50.152H329.523L329.747 50.504Z" fill="white"/>
<path d="M153.322 73H144.682V41.032H109.546V73H100.906V4.456H109.546V33.448H144.682V4.456H153.322V73ZM190.782 20.584C195.198 20.584 198.974 21.544 202.11 23.464C205.31 25.384 207.742 28.104 209.406 31.624C211.134 35.08 211.998 39.144 211.998 43.816V48.904H176.766C176.894 54.728 178.366 59.176 181.182 62.248C184.062 65.256 188.062 66.76 193.182 66.76C196.446 66.76 199.326 66.472 201.822 65.896C204.382 65.256 207.006 64.36 209.694 63.208V70.6C207.07 71.752 204.478 72.584 201.918 73.096C199.358 73.672 196.318 73.96 192.798 73.96C187.934 73.96 183.614 72.968 179.838 70.984C176.126 69 173.214 66.056 171.102 62.152C169.054 58.184 168.03 53.352 168.03 47.656C168.03 42.024 168.958 37.192 170.814 33.16C172.734 29.128 175.39 26.024 178.782 23.848C182.238 21.672 186.238 20.584 190.782 20.584ZM190.686 27.496C186.654 27.496 183.454 28.808 181.086 31.432C178.782 33.992 177.406 37.576 176.958 42.184H203.166C203.166 39.24 202.718 36.68 201.822 34.504C200.926 32.328 199.55 30.632 197.694 29.416C195.902 28.136 193.566 27.496 190.686 27.496ZM233.546 73H225.098V0.0399952H233.546V73ZM258.296 73H249.848V0.0399952H258.296V73ZM319.333 47.176C319.333 51.464 318.758 55.272 317.606 58.6C316.518 61.864 314.918 64.648 312.806 66.952C310.758 69.256 308.23 71.016 305.222 72.232C302.278 73.384 298.982 73.96 295.334 73.96C291.942 73.96 288.806 73.384 285.926 72.232C283.046 71.016 280.55 69.256 278.438 66.952C276.326 64.648 274.662 61.864 273.446 58.6C272.294 55.272 271.718 51.464 271.718 47.176C271.718 41.48 272.678 36.68 274.598 32.776C276.518 28.808 279.27 25.8 282.854 23.752C286.438 21.64 290.694 20.584 295.622 20.584C300.294 20.584 304.39 21.64 307.91 23.752C311.494 25.8 314.278 28.808 316.262 32.776C318.31 36.68 319.333 41.48 319.333 47.176ZM280.454 47.176C280.454 51.208 280.966 54.728 281.99 57.736C283.078 60.68 284.742 62.952 286.982 64.552C289.222 66.152 292.07 66.952 295.526 66.952C298.982 66.952 301.83 66.152 304.07 64.552C306.31 62.952 307.942 60.68 308.966 57.736C310.054 54.728 310.598 51.208 310.598 47.176C310.598 43.08 310.054 39.592 308.966 36.712C307.878 33.832 306.214 31.624 303.974 30.088C301.798 28.488 298.95 27.688 295.43 27.688C290.182 27.688 286.374 29.416 284.006 32.872C281.638 36.328 280.454 41.096 280.454 47.176Z" fill="#B98C76"/>
<path d="M351.512 69.64C351.32 70.3867 351.075 71.1973 350.776 72.072C350.478 72.9467 350.147 73.8107 349.784 74.664C349.443 75.5387 349.102 76.36 348.76 77.128H346.648C346.798 76.5307 346.947 75.8907 347.096 75.208C347.267 74.5253 347.427 73.832 347.576 73.128C347.726 72.4453 347.854 71.7733 347.96 71.112C348.088 70.4507 348.195 69.8427 348.28 69.288H351.288L351.512 69.64ZM347.896 57.576C347.896 56.7653 348.088 56.2 348.472 55.88C348.856 55.56 349.315 55.4 349.848 55.4C350.403 55.4 350.872 55.56 351.256 55.88C351.662 56.2 351.864 56.7653 351.864 57.576C351.864 58.344 351.662 58.8987 351.256 59.24C350.872 59.5813 350.403 59.752 349.848 59.752C349.315 59.752 348.856 59.5813 348.472 59.24C348.088 58.8987 347.896 58.344 347.896 57.576Z" fill="#D3D3D3"/>
</svg>
