<svg width="120" height="120" viewBox="0 0 120 120" fill="none" xmlns="http://www.w3.org/2000/svg">
<g clip-path="url(#clip0_371_3)">
<path d="M65.7417 28.224C65.3577 28.224 65.027 28.0533 64.7497 27.712C64.4937 27.3707 64.3657 26.7733 64.3657 25.92C64.3657 25.4293 64.4617 24.8533 64.6537 24.192C65.0804 22.848 65.5177 21.408 65.9657 19.872C66.435 18.336 66.8724 16.768 67.2777 15.168C67.7044 13.568 68.0457 12.0213 68.3017 10.528C68.5577 9.01333 68.6857 7.62667 68.6857 6.368C68.6857 5.94133 68.6644 5.52533 68.6217 5.12C68.6004 4.71467 68.547 4.33067 68.4617 3.968C66.307 6.016 64.3124 8.8 62.4777 12.32C60.6644 15.8187 59.011 19.8933 57.5177 24.544C57.2617 25.248 56.9417 25.7387 56.5577 26.016C56.1737 26.2933 55.811 26.432 55.4697 26.432C55.171 26.432 54.883 26.3147 54.6057 26.08C54.3284 25.824 54.1897 25.44 54.1897 24.928C54.1897 24.5867 54.275 24.1067 54.4457 23.488C54.6164 22.848 54.915 22.2613 55.3417 21.728C55.5764 20.32 55.7684 18.8267 55.9177 17.248C56.0884 15.6693 56.1737 14.208 56.1737 12.864C56.1737 12.2453 56.1417 11.6693 56.0777 11.136C56.035 10.5813 55.9604 10.1013 55.8537 9.696C54.7444 10.8693 53.7097 12.3413 52.7497 14.112C51.811 15.8613 50.979 17.7493 50.2537 19.776C49.5284 21.7813 48.9204 23.744 48.4297 25.664C48.0457 27.0507 47.427 27.744 46.5737 27.744C46.2324 27.744 45.9444 27.5627 45.7097 27.2C45.4964 26.8373 45.3897 26.2933 45.3897 25.568C45.3897 24.864 45.5604 23.9147 45.9017 22.72C46.243 21.5253 46.7017 20.2133 47.2777 18.784C47.875 17.3547 48.5364 15.936 49.2617 14.528C50.0084 13.0987 50.7764 11.7973 51.5657 10.624C52.3764 9.42933 53.1657 8.46933 53.9337 7.744C54.7017 7.01867 55.395 6.656 56.0137 6.656C56.419 6.656 56.7817 6.73067 57.1017 6.88C57.4217 7.02933 57.699 7.33867 57.9337 7.808C58.1684 8.256 58.339 8.94933 58.4457 9.888C58.5737 10.8053 58.6377 12.032 58.6377 13.568C58.6377 13.8453 58.6377 14.1653 58.6377 14.528C59.2564 12.8213 59.971 11.168 60.7817 9.568C61.6137 7.94667 62.4884 6.496 63.4057 5.216C64.323 3.936 65.2404 2.92267 66.1577 2.176C67.075 1.42933 67.939 1.056 68.7497 1.056C69.667 1.056 70.4137 1.55733 70.9897 2.56C71.5657 3.54133 71.8537 5.088 71.8537 7.2C71.8537 9.20533 71.6937 11.1573 71.3737 13.056C71.0537 14.9547 70.6484 16.7467 70.1577 18.432C69.6884 20.1173 69.1977 21.6533 68.6857 23.04C68.195 24.4053 67.7684 25.5787 67.4057 26.56C67.171 27.1573 66.9257 27.584 66.6697 27.84C66.4137 28.096 66.1044 28.224 65.7417 28.224Z" fill="white"/>
<path d="M18.432 56.48C17.9627 56.48 17.504 56.3307 17.056 56.032C16.6293 55.7333 16.416 55.2427 16.416 54.56C16.416 54.0053 16.5547 53.5573 16.832 53.216C17.1093 52.8747 17.4293 52.6293 17.792 52.48C18.1547 52.3093 18.4747 52.224 18.752 52.224C19.0293 52.224 19.3387 52.288 19.68 52.416C20.0427 52.544 20.352 52.768 20.608 53.088C20.864 53.3867 20.992 53.8347 20.992 54.432C20.992 55.0293 20.736 55.52 20.224 55.904C19.712 56.288 19.1147 56.48 18.432 56.48Z" fill="white"/>
<path d="M27.432 36.48C26.9627 36.48 26.504 36.3307 26.056 36.032C25.6293 35.7333 25.416 35.2427 25.416 34.56C25.416 34.0053 25.5547 33.5573 25.832 33.216C26.1093 32.8747 26.4293 32.6293 26.792 32.48C27.1547 32.3093 27.4747 32.224 27.752 32.224C28.0293 32.224 28.3387 32.288 28.68 32.416C29.0427 32.544 29.352 32.768 29.608 33.088C29.864 33.3867 29.992 33.8347 29.992 34.432C29.992 35.0293 29.736 35.52 29.224 35.904C28.712 36.288 28.1147 36.48 27.432 36.48Z" fill="white"/>
<path d="M21.432 45.48C20.9627 45.48 20.504 45.3307 20.056 45.032C19.6293 44.7333 19.416 44.2427 19.416 43.56C19.416 43.0053 19.5547 42.5573 19.832 42.216C20.1093 41.8747 20.4293 41.6293 20.792 41.48C21.1547 41.3093 21.4747 41.224 21.752 41.224C22.0293 41.224 22.3387 41.288 22.68 41.416C23.0427 41.544 23.352 41.768 23.608 42.088C23.864 42.3867 23.992 42.8347 23.992 43.432C23.992 44.0293 23.736 44.52 23.224 44.904C22.712 45.288 22.1147 45.48 21.432 45.48Z" fill="white"/>
<path d="M35.432 28.48C34.9627 28.48 34.504 28.3307 34.056 28.032C33.6293 27.7333 33.416 27.2427 33.416 26.56C33.416 26.0053 33.5547 25.5573 33.832 25.216C34.1093 24.8747 34.4293 24.6293 34.792 24.48C35.1547 24.3093 35.4747 24.224 35.752 24.224C36.0293 24.224 36.3387 24.288 36.68 24.416C37.0427 24.544 37.352 24.768 37.608 25.088C37.864 25.3867 37.992 25.8347 37.992 26.432C37.992 27.0293 37.736 27.52 37.224 27.904C36.712 28.288 36.1147 28.48 35.432 28.48Z" fill="white"/>
<path d="M63.3911 115.686C64.3938 115.686 65.0551 115.804 65.3751 116.038C65.6951 116.273 65.8551 116.572 65.8551 116.934C65.8551 117.212 65.6951 117.478 65.3751 117.734C65.0338 118.012 64.5965 118.204 64.0631 118.31C63.4231 118.438 62.6658 118.566 61.7911 118.694C60.8951 118.844 59.9671 118.972 59.0071 119.078C58.0258 119.206 57.0871 119.302 56.1911 119.366C55.2738 119.43 54.4738 119.462 53.7911 119.462C52.7885 119.441 52.0738 119.249 51.6471 118.886C51.1991 118.524 50.9751 118.193 50.9751 117.894C50.9751 117.681 51.0711 117.468 51.2631 117.254C51.4551 117.062 51.7965 116.966 52.2871 116.966C52.6071 116.966 53.0551 116.934 53.6311 116.87C54.1858 116.806 54.8151 116.721 55.5191 116.614C55.5405 115.932 55.6258 114.972 55.7751 113.734C55.9031 112.518 56.1058 111.121 56.3831 109.542C56.6605 107.985 57.0231 106.342 57.4711 104.614C57.8978 102.908 58.4205 101.212 59.0391 99.5265C59.6365 97.8625 60.3405 96.3051 61.1511 94.8545C61.9405 93.4251 62.8471 92.2091 63.8711 91.2065C64.8738 90.2038 65.9938 89.5211 67.2311 89.1585C67.5725 89.0731 67.8498 89.0091 68.0631 88.9665C68.2765 88.9238 68.5218 88.9025 68.7991 88.9025C69.0125 88.9025 69.2685 89.0625 69.5671 89.3825C69.8658 89.7025 70.0151 90.2145 70.0151 90.9185C70.0151 91.4305 69.8018 91.7505 69.3751 91.8785C67.9245 92.2411 66.6551 92.9238 65.5671 93.9265C64.4578 94.9291 63.4871 96.3478 62.6551 98.1825C61.8018 100.038 61.0658 102.385 60.4471 105.222C59.8071 108.06 59.2418 111.494 58.7511 115.526C58.7298 115.74 58.6871 115.953 58.6231 116.166C59.5618 116.038 60.4578 115.921 61.3111 115.814C62.1645 115.729 62.8578 115.686 63.3911 115.686Z" fill="white"/>
<path d="M44.4514 103.108C44.5839 102.613 44.8689 102.168 45.3064 101.772C45.7397 101.391 46.2693 101.052 46.8953 100.756C47.5171 100.476 48.1868 100.233 48.9044 100.027C49.622 99.822 50.3271 99.6631 51.0199 99.5506C51.7126 99.4381 52.3367 99.3651 52.8923 99.3318C53.1774 98.7622 53.3821 98.2455 53.5064 97.7819C53.585 97.4882 53.5714 97.261 53.4654 97.1001C53.3595 96.9392 53.1597 96.8194 52.866 96.7407C52.2169 96.5668 51.4981 96.4984 50.7096 96.5356C49.9211 96.5728 49.0986 96.6754 48.2419 96.8434C47.3852 97.0114 46.5532 97.2108 45.746 97.4418C44.9387 97.6727 44.1994 97.897 43.5282 98.1147C42.8416 98.3282 42.274 98.4992 41.8255 98.6275C41.377 98.7558 41.0909 98.8033 40.9673 98.7702C40.7818 98.7205 40.6593 98.6214 40.5997 98.4729C40.5205 98.3358 40.5016 98.1899 40.543 98.0354C40.5762 97.9117 40.8335 97.7239 41.3152 97.472C41.7813 97.2159 42.3954 96.9332 43.1574 96.6239C43.9153 96.3301 44.7546 96.0415 45.6753 95.7581C46.596 95.4747 47.5394 95.2306 48.5053 95.0256C49.4558 94.8165 50.3604 94.6862 51.219 94.6346C52.0621 94.579 52.7928 94.6339 53.411 94.7996C54.2146 95.0149 54.7598 95.484 55.0465 96.2068C55.3332 96.9297 55.3067 97.9247 54.9672 99.192C54.7394 100.042 54.4014 100.871 53.9531 101.678C53.4894 102.482 52.9587 103.226 52.3612 103.91C51.744 104.606 51.1131 105.199 50.4683 105.689C49.804 106.19 49.1537 106.546 48.5176 106.756C47.8773 106.982 47.3021 107.027 46.7921 106.89C45.8184 106.63 45.1259 106.154 44.7145 105.464C44.303 104.774 44.2153 103.989 44.4514 103.108ZM51.9272 100.986C51.3694 101.152 50.792 101.328 50.195 101.516C49.5981 101.704 49.0377 101.91 48.5138 102.134C47.99 102.358 47.547 102.62 47.1849 102.921C46.8032 103.233 46.5585 103.59 46.4508 103.991C46.2976 104.563 46.5301 104.932 47.1483 105.098C47.5346 105.201 48.0105 105.064 48.5757 104.685C49.1214 104.318 49.6909 103.799 50.2843 103.13C50.8777 102.461 51.4254 101.746 51.9272 100.986Z" fill="white"/>
<path d="M40.2753 90.9297C41.0928 91.4017 41.5572 92.0855 41.6683 92.981C41.7794 93.8766 41.5469 94.8232 40.9709 95.8208C40.7629 96.1811 40.4944 96.5341 40.1655 96.88C39.8146 97.2317 39.46 97.5258 39.1018 97.7623C39.1428 97.9153 39.143 98.091 39.1024 98.2893C39.0538 98.5014 38.9535 98.7391 38.8015 99.0024C38.3295 99.8199 37.759 100.488 37.0898 101.007C36.4207 101.526 35.7135 101.903 34.9683 102.138C34.215 102.386 33.4812 102.489 32.767 102.447C32.0389 102.396 31.3838 102.202 30.8019 101.866C29.8458 101.314 29.2698 100.52 29.074 99.483C28.8702 98.46 29.1722 97.2488 29.9802 95.8493C30.4042 95.1149 30.9471 94.4306 31.6088 93.7965C32.2566 93.1544 32.9716 92.5881 33.7537 92.0974C34.522 91.5987 35.3086 91.2122 36.1136 90.938C36.9047 90.6557 37.6665 90.5043 38.3989 90.4838C39.1094 90.4691 39.7349 90.6177 40.2753 90.9297ZM37.322 97.677C37.3028 97.5182 37.3453 97.3487 37.4493 97.1685C37.5693 96.9607 37.7308 96.7769 37.934 96.617C38.1233 96.4492 38.3635 96.2091 38.6546 95.8968C38.9457 95.5846 39.2833 95.0959 39.6673 94.4308C40.0513 93.7657 39.98 93.2811 39.4535 92.9771C38.8715 92.6411 38.1991 92.5577 37.4363 92.727C36.6655 92.9101 35.8741 93.2569 35.0621 93.7673C34.2501 94.2777 33.5002 94.8885 32.8123 95.5999C32.1026 96.3172 31.5318 97.0499 31.0998 97.7982C30.8198 98.2831 30.7139 98.6746 30.782 98.9726C30.8421 99.2845 31.1078 99.5764 31.5789 99.8484C32.0638 100.128 32.6656 100.254 33.3841 100.226C34.0808 100.203 34.7624 100.014 35.4288 99.6601C36.0952 99.3059 36.6284 98.7823 37.0284 98.0895C37.1164 97.9371 37.2143 97.7996 37.322 97.677Z" fill="white"/>
<path d="M34.5722 84.4711C34.9003 84.7992 35.0078 85.2801 34.8946 85.9136C34.7815 86.5472 34.4308 87.1582 33.8425 87.7465C33.1976 88.3913 32.4226 88.9966 31.5175 89.5623C30.6011 90.1167 29.6338 90.6428 28.6155 91.1406C27.586 91.6497 26.5904 92.1362 25.6287 92.6C25.4251 92.6906 25.2384 92.7188 25.0687 92.6849C24.8764 92.651 24.6671 92.5209 24.4408 92.2946C24.0335 91.8873 24.0278 91.4856 24.4238 91.0897C24.5143 90.9992 24.7632 90.8408 25.1705 90.6145C25.5778 90.3882 26.0869 90.1167 26.6979 89.7999C27.2975 89.4718 27.9424 89.1098 28.6325 88.7138C29.3113 88.3291 29.9788 87.9218 30.635 87.4919C31.2912 87.062 31.8739 86.6377 32.383 86.2191C32.0097 86.2304 31.5119 86.3209 30.8896 86.4906C30.256 86.649 29.5546 86.8414 28.7852 87.0676C28.0046 87.3052 27.2126 87.5315 26.4094 87.7465C25.5948 87.9727 24.8254 88.1538 24.1014 88.2895C23.3547 88.4253 22.7098 88.4819 22.1667 88.4592C21.601 88.4366 21.1937 88.3008 20.9448 88.0519C20.5828 87.6899 20.3905 87.2713 20.3678 86.7961C20.3226 86.3209 20.5093 85.7383 20.9279 85.0481C21.3239 84.358 22.0196 83.5151 23.0153 82.5195C23.547 81.9878 23.9939 81.4391 24.3559 80.8734C24.7067 80.2964 24.9046 79.7477 24.9499 79.2272C24.9725 78.7068 24.7915 78.2543 24.4068 77.8696C23.8298 77.2926 23.2132 76.8797 22.5571 76.6307C21.8895 76.3932 21.2616 76.2404 20.6733 76.1725C20.0624 76.1047 19.5419 76.0594 19.112 76.0368C18.6708 76.0255 18.3879 75.9576 18.2635 75.8331C18.0033 75.5729 18.0089 75.307 18.2805 75.0355C18.3936 74.9224 18.6595 74.8262 19.0781 74.747C19.4741 74.6678 19.9719 74.6226 20.5715 74.6113C21.1485 74.5999 21.7651 74.6395 22.4213 74.73C23.0549 74.8206 23.6715 74.9846 24.2711 75.2222C24.8594 75.4485 25.3629 75.7709 25.7815 76.1895C26.5621 76.9702 27.0486 77.7621 27.2409 78.5654C27.4219 79.3574 27.2805 80.2229 26.8167 81.1619C26.3415 82.0896 25.5156 83.1418 24.339 84.3184C23.6941 84.9633 23.2642 85.4724 23.0492 85.8458C22.8116 86.2191 22.7381 86.5529 22.8286 86.847C23.2019 86.7452 23.7167 86.5812 24.3729 86.3549C25.0178 86.1399 25.7475 85.908 26.5621 85.6591C27.3654 85.3989 28.1913 85.15 29.0398 84.9124C29.8657 84.6748 30.6577 84.4825 31.4157 84.3354C32.1737 84.1883 32.8356 84.1148 33.4012 84.1148C33.9556 84.1261 34.3459 84.2449 34.5722 84.4711Z" fill="white"/>
<path d="M29.8378 65.8452C30.4538 66.9121 30.8018 67.755 30.882 68.3738C30.9622 68.9927 30.829 69.4021 30.4826 69.6021C30.2609 69.7301 30.0408 69.7648 29.8222 69.7062C29.5957 69.6338 29.4184 69.4867 29.2904 69.265C29.1544 69.0295 28.993 68.67 28.8063 68.1866C28.6334 67.6952 28.423 67.2347 28.175 66.8052C27.351 65.378 26.2524 64.4511 24.8791 64.0246C23.5059 63.598 21.8063 63.6463 19.7804 64.1693C17.7407 64.7003 15.3079 65.6707 12.4822 67.0804C13.5674 67.0081 14.6847 66.9913 15.8339 67.0298C16.9613 67.0625 18.0434 67.1767 19.0802 67.3726C20.0952 67.5625 20.9905 67.8493 21.7662 68.2328C22.5419 68.6164 23.1058 69.113 23.4578 69.7227C23.7938 70.3046 23.8963 70.8182 23.7653 71.2633C23.6263 71.6946 23.2243 72.1022 22.5591 72.4862C21.9633 72.8302 21.2369 73.0279 20.3797 73.0794C19.5088 73.1388 18.5738 73.0874 17.5749 72.9252C16.5759 72.7629 15.5796 72.5252 14.5859 72.2121C13.5783 71.907 12.647 71.5579 11.7919 71.1648C10.9149 70.7658 10.1699 70.3554 9.55675 69.9334C8.94362 69.5114 8.53305 69.1203 8.32505 68.76C8.11705 68.3998 8.08176 68.0507 8.21918 67.7127C8.35659 67.3747 8.77171 67.0057 9.46453 66.6057C11.0857 65.6697 12.6974 64.8131 14.2994 64.036C15.8796 63.253 17.4159 62.6339 18.9083 62.1787C20.4006 61.7235 21.8147 61.5168 23.1505 61.5585C24.4922 61.5783 25.7281 61.9271 26.8584 62.6047C27.9886 63.2824 28.9818 64.3625 29.8378 65.8452ZM10.6613 68.6306C11.5047 69.0674 12.4155 69.493 13.3938 69.9074C14.3721 70.3218 15.357 70.6677 16.3485 70.9451C17.332 71.2086 18.2684 71.3424 19.1575 71.3463C20.0466 71.3503 20.8237 71.1603 21.4888 70.7763C21.6966 70.6563 21.7246 70.4647 21.5726 70.2014C21.4526 69.9936 21.1292 69.8015 20.6025 69.6252C20.054 69.4431 19.3775 69.2794 18.5731 69.1342C17.7548 68.9969 16.8841 68.8807 15.9608 68.7856C15.0157 68.6846 14.0837 68.6223 13.1647 68.5986C12.2457 68.5749 11.4113 68.5856 10.6613 68.6306Z" fill="white"/>
<path d="M74.3507 29.2812C74.0698 29.1648 73.8614 28.9573 73.7254 28.6585C73.5955 28.3449 73.6255 27.959 73.8153 27.5007C73.95 27.1755 74.1811 26.7431 74.5086 26.2033C74.8422 25.6488 75.2268 25.0547 75.6624 24.4212C76.098 23.7877 76.5379 23.1646 76.9822 22.552C77.4473 21.9307 77.8819 21.3833 78.2858 20.9098C78.6897 20.4364 79.0133 20.0942 79.2566 19.8832C79.4606 19.7252 79.6265 19.6381 79.7545 19.6218C79.8972 19.6117 80.0203 19.6281 80.1238 19.6709C80.3308 19.7566 80.4806 19.8966 80.5733 20.0909C80.6808 20.2913 80.655 20.5837 80.4958 20.968C80.4039 21.1897 80.2065 21.5409 79.9035 22.0215C79.6214 22.4935 79.273 23.0419 78.8583 23.6668C78.4645 24.283 78.0468 24.9153 77.6051 25.5636C77.1843 26.2032 76.7757 26.8133 76.3794 27.3938C75.983 27.9744 75.6591 28.4637 75.4077 28.8617C75.2506 29.0738 75.0705 29.2157 74.8676 29.2875C74.6856 29.3506 74.5133 29.3485 74.3507 29.2812ZM81.6026 17.9195C81.2626 17.7787 80.9803 17.5405 80.7556 17.205C80.5457 16.8756 80.5356 16.4817 80.7254 16.0235C80.8846 15.6392 81.1019 15.3655 81.3772 15.2024C81.6674 15.0455 81.9595 14.9674 82.2537 14.968C82.5687 14.9599 82.8224 14.9957 83.0145 15.0753C83.2067 15.1549 83.4027 15.2881 83.6024 15.4747C83.8231 15.6527 83.9762 15.8893 84.0618 16.1845C84.1534 16.4649 84.1135 16.8121 83.9421 17.226C83.8258 17.5069 83.6256 17.7184 83.3416 17.8605C83.0637 17.9878 82.7598 18.0525 82.43 18.0544C82.1149 18.0624 81.8391 18.0175 81.6026 17.9195Z" fill="white"/>
<path d="M78.8682 33.524C78.5401 33.1959 78.4326 32.715 78.5458 32.0815C78.6589 31.4479 79.0096 30.837 79.598 30.2486C80.2428 29.6038 81.0178 28.9985 81.9229 28.4328C82.8393 27.8784 83.8067 27.3523 84.8249 26.8545C85.8544 26.3454 86.85 25.8589 87.8117 25.3951C88.0154 25.3046 88.202 25.2763 88.3717 25.3102C88.5641 25.3442 88.7734 25.4743 88.9996 25.7005C89.4069 26.1078 89.4126 26.5095 89.0166 26.9054C88.9261 26.996 88.6772 27.1544 88.2699 27.3806C87.8626 27.6069 87.3535 27.8784 86.7426 28.1952C86.1429 28.5233 85.4981 28.8853 84.8079 29.2813C84.1291 29.666 83.4616 30.0733 82.8054 30.5032C82.1492 30.9331 81.5665 31.3574 81.0574 31.776C81.4308 31.7647 81.9286 31.6742 82.5508 31.5045C83.1844 31.3461 83.8859 31.1537 84.6552 30.9275C85.4358 30.6899 86.2278 30.4636 87.0311 30.2486C87.8456 30.0224 88.615 29.8414 89.3391 29.7056C90.0858 29.5698 90.7306 29.5133 91.2737 29.5359C91.8394 29.5585 92.2467 29.6943 92.4956 29.9432C92.8576 30.3052 93.05 30.7238 93.0726 31.199C93.1178 31.6742 92.9312 32.2568 92.5126 32.947C92.1166 33.6371 91.4208 34.48 90.4252 35.4756C89.8934 36.0073 89.4465 36.556 89.0845 37.1217C88.7338 37.6987 88.5358 38.2474 88.4905 38.7679C88.4679 39.2883 88.6489 39.7409 89.0336 40.1255C89.6106 40.7025 90.2272 41.1155 90.8834 41.3644C91.5509 41.602 92.1788 41.7547 92.7671 41.8226C93.3781 41.8905 93.8985 41.9357 94.3284 41.9583C94.7696 41.9697 95.0525 42.0375 95.1769 42.162C95.4371 42.4222 95.4315 42.6881 95.16 42.9596C95.0468 43.0727 94.781 43.1689 94.3623 43.2481C93.9664 43.3273 93.4686 43.3726 92.8689 43.3839C92.2919 43.3952 91.6753 43.3556 91.0191 43.2651C90.3856 43.1746 89.769 43.0105 89.1694 42.7729C88.581 42.5467 88.0776 42.2242 87.659 41.8056C86.8783 41.025 86.3918 40.233 86.1995 39.4297C86.0185 38.6378 86.1599 37.7723 86.6238 36.8332C87.0989 35.9055 87.9248 34.8533 89.1015 33.6767C89.7464 33.0318 90.1763 32.5227 90.3912 32.1494C90.6288 31.776 90.7024 31.4422 90.6119 31.1481C90.2385 31.2499 89.7237 31.414 89.0675 31.6402C88.4226 31.8552 87.6929 32.0871 86.8783 32.336C86.0751 32.5962 85.2492 32.8451 84.4006 33.0827C83.5747 33.3203 82.7828 33.5127 82.0247 33.6597C81.2667 33.8068 80.6049 33.8803 80.0392 33.8803C79.4848 33.869 79.0945 33.7502 78.8682 33.524Z" fill="white"/>
<path d="M92.4039 45.78C92.3127 45.44 92.3428 45.1504 92.494 44.9111C92.6339 44.6914 92.8275 44.5484 93.0748 44.4822C93.2912 44.4242 93.5169 44.4631 93.7521 44.5988C94.0068 44.7459 94.257 44.9688 94.5027 45.2673C94.9929 45.7986 95.4727 46.2912 95.9422 46.7451C96.4158 47.2145 96.8837 47.5695 97.3457 47.8102C97.8077 48.0508 98.2473 48.1152 98.6646 48.0034C99.0201 47.9081 99.2595 47.7198 99.3828 47.4382C99.5216 47.1526 99.5372 46.8088 99.4295 46.407C99.3674 46.1752 99.2341 45.8631 99.0295 45.4706C98.8405 45.0741 98.6256 44.643 98.3849 44.1774C98.1638 43.7232 97.9447 43.2766 97.7278 42.8378C97.5263 42.3949 97.382 42.0112 97.2951 41.6866C97.1377 41.0993 97.1588 40.6216 97.3583 40.2534C97.5732 39.8811 97.928 39.6287 98.4225 39.4962C98.6698 39.4299 99.0801 39.4773 99.6533 39.6385C100.227 39.7996 100.879 40.0389 101.61 40.3565C102.361 40.6855 103.124 41.0607 103.899 41.4824C104.675 41.904 105.406 42.3458 106.093 42.8077C106.784 43.2851 107.362 43.7431 107.828 44.1816C108.297 44.6355 108.58 45.0402 108.675 45.3957C108.77 45.7512 108.727 46.0527 108.544 46.3003C108.362 46.5478 108.094 46.7192 107.738 46.8145C107.46 46.889 107.208 46.9068 106.982 46.868C106.772 46.8249 106.573 46.6711 106.386 46.4064C106.204 46.1572 106.026 45.7411 105.853 45.1579C105.213 44.6835 104.492 44.1892 103.692 43.6748C102.911 43.1718 102.121 42.729 101.323 42.3466C100.545 41.9754 99.8285 41.7449 99.1749 41.655C99.4816 42.1194 99.7941 42.6983 100.112 43.3915C100.45 44.0961 100.721 44.827 100.923 45.5843C101.242 46.7743 101.208 47.7277 100.82 48.4445C100.452 49.1726 99.8354 49.6526 98.9699 49.8845C98.4135 50.0335 97.7863 50.0111 97.0884 49.8172C96.41 49.6345 95.7412 49.3333 95.0821 48.9136C94.4231 48.4939 93.8541 48.0086 93.3752 47.4578C92.8809 46.9111 92.5571 46.3519 92.4039 45.78Z" fill="white"/>
<path d="M106.398 63.928C105.886 63.928 105.382 63.768 104.886 63.448C104.406 63.128 103.942 62.704 103.494 62.176C103.062 61.648 102.654 61.064 102.27 60.424C101.886 59.784 101.55 59.144 101.262 58.504C100.974 57.864 100.742 57.28 100.566 56.752C99.9417 56.624 99.3897 56.56 98.9097 56.56C98.6057 56.56 98.3897 56.632 98.2617 56.776C98.1337 56.92 98.0697 57.144 98.0697 57.448C98.0697 58.12 98.1897 58.832 98.4297 59.584C98.6697 60.336 98.9817 61.104 99.3657 61.888C99.7497 62.672 100.158 63.424 100.59 64.144C101.022 64.864 101.43 65.52 101.814 66.112C102.198 66.72 102.51 67.224 102.75 67.624C102.99 68.024 103.11 68.288 103.11 68.416C103.11 68.608 103.046 68.752 102.918 68.848C102.806 68.96 102.67 69.016 102.51 69.016C102.382 69.016 102.134 68.816 101.766 68.416C101.398 68.032 100.966 67.512 100.47 66.856C99.9897 66.2 99.4937 65.464 98.9817 64.648C98.4697 63.832 97.9897 62.984 97.5417 62.104C97.0937 61.24 96.7337 60.4 96.4617 59.584C96.1897 58.784 96.0537 58.064 96.0537 57.424C96.0537 56.592 96.3657 55.944 96.9897 55.48C97.6137 55.016 98.5817 54.784 99.8937 54.784C100.774 54.784 101.662 54.896 102.558 55.12C103.454 55.36 104.31 55.68 105.126 56.08C105.958 56.496 106.694 56.952 107.334 57.448C107.99 57.96 108.502 58.496 108.87 59.056C109.254 59.616 109.446 60.16 109.446 60.688C109.446 61.696 109.166 62.488 108.606 63.064C108.046 63.64 107.31 63.928 106.398 63.928ZM102.414 57.256C102.718 57.752 103.038 58.264 103.374 58.792C103.71 59.32 104.054 59.808 104.406 60.256C104.758 60.704 105.126 61.064 105.51 61.336C105.91 61.624 106.318 61.768 106.734 61.768C107.326 61.768 107.622 61.448 107.622 60.808C107.622 60.408 107.366 59.984 106.854 59.536C106.358 59.104 105.71 58.688 104.91 58.288C104.11 57.888 103.278 57.544 102.414 57.256Z" fill="white"/>
<path d="M95.1408 71.0635C95.5397 70.208 96.1804 69.6858 97.0629 69.4971C97.9453 69.3083 98.9086 69.4574 99.9526 69.9443C100.33 70.1201 100.705 70.3568 101.078 70.6544C101.459 70.9732 101.783 71.3008 102.05 71.6371C102.199 71.5829 102.373 71.5674 102.575 71.5906C102.79 71.6205 103.036 71.6997 103.311 71.8281C104.167 72.2271 104.882 72.7372 105.457 73.3586C106.033 73.9799 106.47 74.6516 106.769 75.3735C107.082 76.1023 107.249 76.8243 107.268 77.5395C107.281 78.2693 107.145 78.9387 106.861 79.5478C106.395 80.5483 105.654 81.1913 104.638 81.4768C103.636 81.769 102.403 81.5736 100.939 80.8907C100.17 80.5323 99.4414 80.0511 98.752 79.4472C98.0559 78.8578 97.4294 78.1949 96.8724 77.4585C96.3086 76.7366 95.8551 75.9867 95.5117 75.2087C95.1616 74.4452 94.9444 73.6995 94.8601 72.9717C94.7835 72.2651 94.8771 71.6291 95.1408 71.0635ZM102.12 73.4176C101.963 73.4505 101.791 73.423 101.602 73.3351C101.385 73.2336 101.187 73.0887 101.01 72.9003C100.827 72.7263 100.567 72.508 100.23 72.2452C99.8938 71.9823 99.3775 71.6886 98.6815 71.3641C97.9855 71.0395 97.509 71.1527 97.252 71.7038C96.968 72.3128 96.9436 72.9899 97.1787 73.7351C97.4283 74.487 97.8427 75.2452 98.4219 76.0096C99.0011 76.774 99.675 77.4678 100.444 78.0911C101.22 78.7356 102 79.2404 102.783 79.6055C103.29 79.8422 103.69 79.9136 103.98 79.8197C104.286 79.7327 104.554 79.4426 104.783 78.9496C105.02 78.442 105.093 77.8316 105.002 77.1183C104.918 76.4262 104.671 75.7637 104.26 75.1307C103.849 74.4977 103.281 74.0122 102.556 73.6741C102.397 73.5997 102.251 73.5142 102.12 73.4176Z" fill="white"/>
<path d="M81.8515 86.1785C82.6183 85.4759 83.4936 85.0102 84.4775 84.7814C85.4496 84.5634 86.46 84.5056 87.5087 84.608C88.5457 84.7212 89.5673 84.9243 90.5737 85.2174C91.5791 85.5331 92.4936 85.8561 93.3172 86.1865C92.6422 85.0473 92.0934 84.1287 91.6709 83.4308C91.2366 82.7436 90.9143 82.2143 90.7041 81.8427C90.482 81.482 90.3518 81.2215 90.3135 81.0613C90.2752 80.9011 90.3033 80.7777 90.3976 80.6913C90.6571 80.4534 91.0346 80.368 91.5299 80.4349C92.0253 80.5019 92.4784 80.7595 92.8891 81.2077C93.3215 81.6796 93.8118 82.3805 94.3601 83.3103C94.9192 84.252 95.5008 85.325 96.1051 86.5291C96.7083 87.7558 97.2973 89.0499 97.8721 90.4113C98.4576 91.7844 99.0043 93.1389 99.5122 94.4748C100.019 95.8332 100.445 97.1031 100.79 98.2846C100.957 98.8694 101.024 99.2857 100.99 99.5334C100.945 99.7919 100.816 100.018 100.604 100.213C100.262 100.526 99.9446 100.524 99.6527 100.205C99.5446 100.087 99.4611 99.9253 99.4022 99.7188C99.3315 99.5232 99.2504 99.3045 99.159 99.0627C98.8958 98.3491 98.5966 97.549 98.2616 96.6624C97.9148 95.7866 97.5469 94.8759 97.1579 93.9303C96.757 92.9955 96.3498 92.0774 95.9362 91.1761C95.5225 90.2747 95.1281 89.4534 94.7527 88.7123C94.5698 89.531 94.2983 90.4308 93.9384 91.4116C93.5785 92.3924 93.1626 93.3595 92.6906 94.3128C92.2295 95.2779 91.7556 96.1462 91.2689 96.9177C90.7823 97.6891 90.3266 98.2694 89.9019 98.6586C89.6778 98.8639 89.4419 98.9499 89.1942 98.9164C88.9456 98.9056 88.7456 98.8176 88.5942 98.6524C88.4753 98.5227 88.3977 98.3551 88.3614 98.1496C88.3241 97.9668 88.3801 97.7201 88.5296 97.4096C89.0595 96.4248 89.5782 95.4396 90.0855 94.4539C90.6037 93.4799 91.1356 92.45 91.6813 91.364C92.226 90.3006 92.7933 89.108 93.3833 87.7862C92.601 87.5482 91.7277 87.3175 90.7636 87.0942C89.8102 86.8828 88.8544 86.7278 87.8961 86.6293C86.9486 86.5426 86.0704 86.5553 85.2615 86.6672C84.4634 86.7909 83.8166 87.0797 83.3212 87.5337C82.6724 88.1282 82.1715 88.8368 81.8185 89.6594C81.4655 90.482 81.2137 91.3203 81.0632 92.1744C80.9008 93.0393 80.7926 93.833 80.7384 94.5554C80.695 95.2896 80.6585 95.8655 80.629 96.2832C80.6083 96.4975 80.567 96.6656 80.505 96.7874C80.4421 96.9319 80.3693 97.042 80.2868 97.1176C80.1216 97.269 79.9285 97.2832 79.7074 97.1603C79.4853 97.06 79.3767 96.8231 79.3817 96.4496C79.3719 96.1547 79.3577 95.7011 79.3392 95.0888C79.3206 94.4765 79.3345 93.7693 79.3808 92.9673C79.4262 92.1879 79.5295 91.377 79.6909 90.5347C79.8404 89.7032 80.0961 88.9047 80.458 88.1391C80.7972 87.3725 81.2617 86.719 81.8515 86.1785Z" fill="white"/>
</g>
<defs>
<clipPath id="clip0_371_3">
<rect width="120" height="120" fill="white"/>
</clipPath>
</defs>
</svg>
